<?xml version="1.0" encoding="UTF-8" standalone="no"?>
<!DOCTYPE svg PUBLIC "-//W3C//DTD SVG 1.1//EN"
 "http://www.w3.org/Graphics/SVG/1.1/DTD/svg11.dtd">
<!-- Generated by graphviz version 2.47.0 (20210316.0004)
 -->
<!-- Title: dependencies Pages: 1 -->
<svg width="504pt" height="211pt"
 viewBox="0.00 0.00 504.00 211.00" xmlns="http://www.w3.org/2000/svg" xmlns:xlink="http://www.w3.org/1999/xlink">
<g id="graph0" class="graph" transform="scale(1 1) rotate(0) translate(4 207)">
<title>dependencies</title>
<polygon fill="white" stroke="transparent" points="-4,4 -4,-207 500,-207 500,4 -4,4"/>
<text text-anchor="start" x="227.01" y="-42.4" font-family="Times-12" font-weight="bold" font-size="14.00">Legend</text>
<polygon fill="#ffffb3" stroke="transparent" points="14,-10 14,-30 34,-30 34,-10 14,-10"/>
<text text-anchor="start" x="37.63" y="-15.4" font-family="Times-12" font-size="14.00"> &#160;Declarations</text>
<polygon fill="#8dd3c7" stroke="transparent" points="127,-10 127,-30 147,-30 147,-10 127,-10"/>
<text text-anchor="start" x="150.73" y="-15.4" font-family="Times-12" font-size="14.00"> &#160;Module</text>
<polygon fill="#80b1d3" stroke="transparent" points="213,-10 213,-30 233,-30 233,-10 213,-10"/>
<text text-anchor="start" x="236.78" y="-15.4" font-family="Times-12" font-size="14.00"> &#160;Bootstrap</text>
<polygon fill="#fdb462" stroke="transparent" points="310,-10 310,-30 330,-30 330,-10 310,-10"/>
<text text-anchor="start" x="333.67" y="-15.4" font-family="Times-12" font-size="14.00"> &#160;Providers</text>
<polygon fill="#fb8072" stroke="transparent" points="406,-10 406,-30 426,-30 426,-10 406,-10"/>
<text text-anchor="start" x="429.73" y="-15.4" font-family="Times-12" font-size="14.00"> &#160;Exports</text>
<g id="clust1" class="cluster">
<title>cluster_EventsModule</title>
<polygon fill="none" stroke="black" stroke-dasharray="1,5" points="20,-70 20,-195 476,-195 476,-70 20,-70"/>
</g>
<g id="clust3" class="cluster">
<title>cluster_EventsModule_imports</title>
<polygon fill="none" stroke="black" points="354,-78 354,-130 468,-130 468,-78 354,-78"/>
</g>
<g id="clust6" class="cluster">
<title>cluster_EventsModule_providers</title>
<polygon fill="none" stroke="black" points="28,-78 28,-130 346,-130 346,-78 28,-78"/>
</g>
<!-- SharedModule -->
<g id="node1" class="node">
<title>SharedModule</title>
<polygon fill="#8dd3c7" stroke="black" points="460.42,-122 457.42,-126 436.42,-126 433.42,-122 361.58,-122 361.58,-86 460.42,-86 460.42,-122"/>
<text text-anchor="middle" x="411" y="-99.8" font-family="Times,serif" font-size="14.00">SharedModule</text>
</g>
<!-- EventsModule -->
<g id="node2" class="node">
<title>EventsModule</title>
<polygon fill="#8dd3c7" stroke="black" points="320.65,-187 317.65,-191 296.65,-191 293.65,-187 223.35,-187 223.35,-151 320.65,-151 320.65,-187"/>
<text text-anchor="middle" x="272" y="-164.8" font-family="Times,serif" font-size="14.00">EventsModule</text>
</g>
<!-- SharedModule&#45;&gt;EventsModule -->
<g id="edge1" class="edge">
<title>SharedModule&#45;&gt;EventsModule</title>
<path fill="none" stroke="black" d="M411,-122.11C411,-141.34 411,-169 411,-169 411,-169 331.01,-169 331.01,-169"/>
<polygon fill="black" stroke="black" points="331.01,-165.5 321.01,-169 331.01,-172.5 331.01,-165.5"/>
</g>
<!-- EventsService -->
<g id="node3" class="node">
<title>EventsService</title>
<ellipse fill="#fdb462" stroke="black" cx="272" cy="-104" rx="66.05" ry="18"/>
<text text-anchor="middle" x="272" y="-99.8" font-family="Times,serif" font-size="14.00">EventsService</text>
</g>
<!-- EventsService&#45;&gt;EventsModule -->
<g id="edge2" class="edge">
<title>EventsService&#45;&gt;EventsModule</title>
<path fill="none" stroke="black" d="M272,-122.11C272,-122.11 272,-140.99 272,-140.99"/>
<polygon fill="black" stroke="black" points="268.5,-140.99 272,-150.99 275.5,-140.99 268.5,-140.99"/>
</g>
<!-- JwtAuthStrategy -->
<g id="node4" class="node">
<title>JwtAuthStrategy</title>
<ellipse fill="#fdb462" stroke="black" cx="112" cy="-104" rx="75.88" ry="18"/>
<text text-anchor="middle" x="112" y="-99.8" font-family="Times,serif" font-size="14.00">JwtAuthStrategy</text>
</g>
<!-- JwtAuthStrategy&#45;&gt;EventsModule -->
<g id="edge3" class="edge">
<title>JwtAuthStrategy&#45;&gt;EventsModule</title>
<path fill="none" stroke="black" d="M112,-122.11C112,-141.34 112,-169 112,-169 112,-169 213.13,-169 213.13,-169"/>
<polygon fill="black" stroke="black" points="213.13,-172.5 223.13,-169 213.13,-165.5 213.13,-172.5"/>
</g>
</g>
</svg>
