<?xml version="1.0" encoding="UTF-8" standalone="no"?>
<!DOCTYPE svg PUBLIC "-//W3C//DTD SVG 1.1//EN"
 "http://www.w3.org/Graphics/SVG/1.1/DTD/svg11.dtd">
<!-- Generated by graphviz version 2.47.0 (20210316.0004)
 -->
<!-- Title: dependencies Pages: 1 -->
<svg width="504pt" height="284pt"
 viewBox="0.00 0.00 504.00 284.00" xmlns="http://www.w3.org/2000/svg" xmlns:xlink="http://www.w3.org/1999/xlink">
<g id="graph0" class="graph" transform="scale(1 1) rotate(0) translate(4 280)">
<title>dependencies</title>
<polygon fill="white" stroke="transparent" points="-4,4 -4,-280 500,-280 500,4 -4,4"/>
<text text-anchor="start" x="227.01" y="-42.4" font-family="Times-12" font-weight="bold" font-size="14.00">Legend</text>
<polygon fill="#ffffb3" stroke="transparent" points="14,-10 14,-30 34,-30 34,-10 14,-10"/>
<text text-anchor="start" x="37.63" y="-15.4" font-family="Times-12" font-size="14.00"> &#160;Declarations</text>
<polygon fill="#8dd3c7" stroke="transparent" points="127,-10 127,-30 147,-30 147,-10 127,-10"/>
<text text-anchor="start" x="150.73" y="-15.4" font-family="Times-12" font-size="14.00"> &#160;Module</text>
<polygon fill="#80b1d3" stroke="transparent" points="213,-10 213,-30 233,-30 233,-10 213,-10"/>
<text text-anchor="start" x="236.78" y="-15.4" font-family="Times-12" font-size="14.00"> &#160;Bootstrap</text>
<polygon fill="#fdb462" stroke="transparent" points="310,-10 310,-30 330,-30 330,-10 310,-10"/>
<text text-anchor="start" x="333.67" y="-15.4" font-family="Times-12" font-size="14.00"> &#160;Providers</text>
<polygon fill="#fb8072" stroke="transparent" points="406,-10 406,-30 426,-30 426,-10 406,-10"/>
<text text-anchor="start" x="429.73" y="-15.4" font-family="Times-12" font-size="14.00"> &#160;Exports</text>
<g id="clust1" class="cluster">
<title>cluster_ClimateChampionModule</title>
<polygon fill="none" stroke="black" stroke-dasharray="1,5" points="60,-70 60,-268 436,-268 436,-70 60,-70"/>
</g>
<g id="clust4" class="cluster">
<title>cluster_ClimateChampionModule_exports</title>
<polygon fill="none" stroke="black" points="172,-208 172,-260 352,-260 352,-208 172,-208"/>
</g>
<g id="clust3" class="cluster">
<title>cluster_ClimateChampionModule_imports</title>
<polygon fill="none" stroke="black" points="314,-78 314,-130 428,-130 428,-78 314,-78"/>
</g>
<g id="clust6" class="cluster">
<title>cluster_ClimateChampionModule_providers</title>
<polygon fill="none" stroke="black" points="68,-78 68,-130 306,-130 306,-78 68,-78"/>
</g>
<!-- SharedModule -->
<g id="node1" class="node">
<title>SharedModule</title>
<polygon fill="#8dd3c7" stroke="black" points="420.42,-122 417.42,-126 396.42,-126 393.42,-122 321.58,-122 321.58,-86 420.42,-86 420.42,-122"/>
<text text-anchor="middle" x="371" y="-99.8" font-family="Times,serif" font-size="14.00">SharedModule</text>
</g>
<!-- ClimateChampionModule -->
<g id="node2" class="node">
<title>ClimateChampionModule</title>
<polygon fill="#8dd3c7" stroke="black" points="343.21,-187 340.21,-191 319.21,-191 316.21,-187 180.79,-187 180.79,-151 343.21,-151 343.21,-187"/>
<text text-anchor="middle" x="262" y="-164.8" font-family="Times,serif" font-size="14.00">ClimateChampionModule</text>
</g>
<!-- SharedModule&#45;&gt;ClimateChampionModule -->
<g id="edge1" class="edge">
<title>SharedModule&#45;&gt;ClimateChampionModule</title>
<path fill="none" stroke="black" d="M332.45,-122.11C332.45,-122.11 332.45,-140.99 332.45,-140.99"/>
<polygon fill="black" stroke="black" points="328.95,-140.99 332.45,-150.99 335.95,-140.99 328.95,-140.99"/>
</g>
<!-- ClimateChampionService  -->
<g id="node3" class="node">
<title>ClimateChampionService </title>
<polygon fill="#fb8072" stroke="black" points="344.14,-252 179.86,-252 179.86,-216 344.14,-216 344.14,-252"/>
<text text-anchor="middle" x="262" y="-229.8" font-family="Times,serif" font-size="14.00">ClimateChampionService </text>
</g>
<!-- ClimateChampionModule&#45;&gt;ClimateChampionService  -->
<g id="edge2" class="edge">
<title>ClimateChampionModule&#45;&gt;ClimateChampionService </title>
<path fill="none" stroke="black" stroke-dasharray="5,2" d="M262,-187.11C262,-187.11 262,-205.99 262,-205.99"/>
<polygon fill="black" stroke="black" points="258.5,-205.99 262,-215.99 265.5,-205.99 258.5,-205.99"/>
</g>
<!-- ClimateChampionService -->
<g id="node4" class="node">
<title>ClimateChampionService</title>
<ellipse fill="#fdb462" stroke="black" cx="187" cy="-104" rx="110.61" ry="18"/>
<text text-anchor="middle" x="187" y="-99.8" font-family="Times,serif" font-size="14.00">ClimateChampionService</text>
</g>
<!-- ClimateChampionService&#45;&gt;ClimateChampionModule -->
<g id="edge3" class="edge">
<title>ClimateChampionService&#45;&gt;ClimateChampionModule</title>
<path fill="none" stroke="black" d="M239.35,-120.07C239.35,-120.07 239.35,-140.82 239.35,-140.82"/>
<polygon fill="black" stroke="black" points="235.85,-140.82 239.35,-150.82 242.85,-140.82 235.85,-140.82"/>
</g>
</g>
</svg>
