<?xml version="1.0" encoding="UTF-8" standalone="no"?>
<!DOCTYPE svg PUBLIC "-//W3C//DTD SVG 1.1//EN"
 "http://www.w3.org/Graphics/SVG/1.1/DTD/svg11.dtd">
<!-- Generated by graphviz version 2.47.0 (20210316.0004)
 -->
<!-- Title: dependencies Pages: 1 -->
<svg width="504pt" height="284pt"
 viewBox="0.00 0.00 504.00 284.00" xmlns="http://www.w3.org/2000/svg" xmlns:xlink="http://www.w3.org/1999/xlink">
<g id="graph0" class="graph" transform="scale(1 1) rotate(0) translate(4 280)">
<title>dependencies</title>
<polygon fill="white" stroke="transparent" points="-4,4 -4,-280 500,-280 500,4 -4,4"/>
<text text-anchor="start" x="227.01" y="-42.4" font-family="Times-12" font-weight="bold" font-size="14.00">Legend</text>
<polygon fill="#ffffb3" stroke="transparent" points="14,-10 14,-30 34,-30 34,-10 14,-10"/>
<text text-anchor="start" x="37.63" y="-15.4" font-family="Times-12" font-size="14.00"> &#160;Declarations</text>
<polygon fill="#8dd3c7" stroke="transparent" points="127,-10 127,-30 147,-30 147,-10 127,-10"/>
<text text-anchor="start" x="150.73" y="-15.4" font-family="Times-12" font-size="14.00"> &#160;Module</text>
<polygon fill="#80b1d3" stroke="transparent" points="213,-10 213,-30 233,-30 233,-10 213,-10"/>
<text text-anchor="start" x="236.78" y="-15.4" font-family="Times-12" font-size="14.00"> &#160;Bootstrap</text>
<polygon fill="#fdb462" stroke="transparent" points="310,-10 310,-30 330,-30 330,-10 310,-10"/>
<text text-anchor="start" x="333.67" y="-15.4" font-family="Times-12" font-size="14.00"> &#160;Providers</text>
<polygon fill="#fb8072" stroke="transparent" points="406,-10 406,-30 426,-30 426,-10 406,-10"/>
<text text-anchor="start" x="429.73" y="-15.4" font-family="Times-12" font-size="14.00"> &#160;Exports</text>
<g id="clust1" class="cluster">
<title>cluster_SharedModule</title>
<polygon fill="none" stroke="black" stroke-dasharray="1,5" points="91,-70 91,-268 405,-268 405,-70 91,-70"/>
</g>
<g id="clust3" class="cluster">
<title>cluster_SharedModule_imports</title>
<polygon fill="none" stroke="black" points="257,-78 257,-130 397,-130 397,-78 257,-78"/>
</g>
<g id="clust6" class="cluster">
<title>cluster_SharedModule_providers</title>
<polygon fill="none" stroke="black" points="99,-78 99,-130 249,-130 249,-78 99,-78"/>
</g>
<g id="clust4" class="cluster">
<title>cluster_SharedModule_exports</title>
<polygon fill="none" stroke="black" points="112,-208 112,-260 374,-260 374,-208 112,-208"/>
</g>
<!-- AppLoggerModule -->
<g id="node1" class="node">
<title>AppLoggerModule</title>
<polygon fill="#8dd3c7" stroke="black" points="389.08,-122 386.08,-126 365.08,-126 362.08,-122 264.92,-122 264.92,-86 389.08,-86 389.08,-122"/>
<text text-anchor="middle" x="327" y="-99.8" font-family="Times,serif" font-size="14.00">AppLoggerModule</text>
</g>
<!-- SharedModule -->
<g id="node2" class="node">
<title>SharedModule</title>
<polygon fill="#8dd3c7" stroke="black" points="232.42,-187 229.42,-191 208.42,-191 205.42,-187 133.58,-187 133.58,-151 232.42,-151 232.42,-187"/>
<text text-anchor="middle" x="183" y="-164.8" font-family="Times,serif" font-size="14.00">SharedModule</text>
</g>
<!-- AppLoggerModule&#45;&gt;SharedModule -->
<g id="edge1" class="edge">
<title>AppLoggerModule&#45;&gt;SharedModule</title>
<path fill="none" stroke="black" d="M315.38,-122.11C315.38,-141.34 315.38,-169 315.38,-169 315.38,-169 242.29,-169 242.29,-169"/>
<polygon fill="black" stroke="black" points="242.29,-165.5 232.29,-169 242.29,-172.5 242.29,-165.5"/>
</g>
<!-- AppLoggerModule  -->
<g id="node3" class="node">
<title>AppLoggerModule </title>
<polygon fill="#fb8072" stroke="black" points="365.58,-252 238.42,-252 238.42,-216 365.58,-216 365.58,-252"/>
<text text-anchor="middle" x="302" y="-229.8" font-family="Times,serif" font-size="14.00">AppLoggerModule </text>
</g>
<!-- SharedModule&#45;&gt;AppLoggerModule  -->
<g id="edge2" class="edge">
<title>SharedModule&#45;&gt;AppLoggerModule </title>
<path fill="none" stroke="black" stroke-dasharray="5,2" d="M226.2,-187.11C226.2,-206.34 226.2,-234 226.2,-234 226.2,-234 228.38,-234 228.38,-234"/>
<polygon fill="black" stroke="black" points="228.38,-237.5 238.38,-234 228.38,-230.5 228.38,-237.5"/>
</g>
<!-- PrismaService  -->
<g id="node4" class="node">
<title>PrismaService </title>
<polygon fill="#fb8072" stroke="black" points="220.36,-252 119.64,-252 119.64,-216 220.36,-216 220.36,-252"/>
<text text-anchor="middle" x="170" y="-229.8" font-family="Times,serif" font-size="14.00">PrismaService </text>
</g>
<!-- SharedModule&#45;&gt;PrismaService  -->
<g id="edge3" class="edge">
<title>SharedModule&#45;&gt;PrismaService </title>
<path fill="none" stroke="black" stroke-dasharray="5,2" d="M176.98,-187.11C176.98,-187.11 176.98,-205.99 176.98,-205.99"/>
<polygon fill="black" stroke="black" points="173.48,-205.99 176.98,-215.99 180.48,-205.99 173.48,-205.99"/>
</g>
<!-- PrismaService -->
<g id="node5" class="node">
<title>PrismaService</title>
<ellipse fill="#fdb462" stroke="black" cx="174" cy="-104" rx="66.63" ry="18"/>
<text text-anchor="middle" x="174" y="-99.8" font-family="Times,serif" font-size="14.00">PrismaService</text>
</g>
<!-- PrismaService&#45;&gt;SharedModule -->
<g id="edge4" class="edge">
<title>PrismaService&#45;&gt;SharedModule</title>
<path fill="none" stroke="black" d="M183,-122.11C183,-122.11 183,-140.99 183,-140.99"/>
<polygon fill="black" stroke="black" points="179.5,-140.99 183,-150.99 186.5,-140.99 179.5,-140.99"/>
</g>
</g>
</svg>
