<?xml version="1.0" encoding="UTF-8" standalone="no"?>
<!DOCTYPE svg PUBLIC "-//W3C//DTD SVG 1.1//EN"
 "http://www.w3.org/Graphics/SVG/1.1/DTD/svg11.dtd">
<!-- Generated by graphviz version 2.47.0 (20210316.0004)
 -->
<!-- Title: dependencies Pages: 1 -->
<svg width="504pt" height="284pt"
 viewBox="0.00 0.00 504.00 284.00" xmlns="http://www.w3.org/2000/svg" xmlns:xlink="http://www.w3.org/1999/xlink">
<g id="graph0" class="graph" transform="scale(1 1) rotate(0) translate(4 280)">
<title>dependencies</title>
<polygon fill="white" stroke="transparent" points="-4,4 -4,-280 500,-280 500,4 -4,4"/>
<text text-anchor="start" x="227.01" y="-42.4" font-family="Times-12" font-weight="bold" font-size="14.00">Legend</text>
<polygon fill="#ffffb3" stroke="transparent" points="14,-10 14,-30 34,-30 34,-10 14,-10"/>
<text text-anchor="start" x="37.63" y="-15.4" font-family="Times-12" font-size="14.00"> &#160;Declarations</text>
<polygon fill="#8dd3c7" stroke="transparent" points="127,-10 127,-30 147,-30 147,-10 127,-10"/>
<text text-anchor="start" x="150.73" y="-15.4" font-family="Times-12" font-size="14.00"> &#160;Module</text>
<polygon fill="#80b1d3" stroke="transparent" points="213,-10 213,-30 233,-30 233,-10 213,-10"/>
<text text-anchor="start" x="236.78" y="-15.4" font-family="Times-12" font-size="14.00"> &#160;Bootstrap</text>
<polygon fill="#fdb462" stroke="transparent" points="310,-10 310,-30 330,-30 330,-10 310,-10"/>
<text text-anchor="start" x="333.67" y="-15.4" font-family="Times-12" font-size="14.00"> &#160;Providers</text>
<polygon fill="#fb8072" stroke="transparent" points="406,-10 406,-30 426,-30 426,-10 406,-10"/>
<text text-anchor="start" x="429.73" y="-15.4" font-family="Times-12" font-size="14.00"> &#160;Exports</text>
<g id="clust1" class="cluster">
<title>cluster_SharedModule</title>
<polygon fill="none" stroke="black" stroke-dasharray="1,5" points="91,-70 91,-268 405,-268 405,-70 91,-70"/>
</g>
<g id="clust6" class="cluster">
<title>cluster_SharedModule_providers</title>
<polygon fill="none" stroke="black" points="247,-78 247,-130 397,-130 397,-78 247,-78"/>
</g>
<g id="clust4" class="cluster">
<title>cluster_SharedModule_exports</title>
<polygon fill="none" stroke="black" points="111,-208 111,-260 373,-260 373,-208 111,-208"/>
</g>
<g id="clust3" class="cluster">
<title>cluster_SharedModule_imports</title>
<polygon fill="none" stroke="black" points="99,-78 99,-130 239,-130 239,-78 99,-78"/>
</g>
<!-- AppLoggerModule -->
<g id="node1" class="node">
<title>AppLoggerModule</title>
<polygon fill="#8dd3c7" stroke="black" points="231.08,-122 228.08,-126 207.08,-126 204.08,-122 106.92,-122 106.92,-86 231.08,-86 231.08,-122"/>
<text text-anchor="middle" x="169" y="-99.8" font-family="Times,serif" font-size="14.00">AppLoggerModule</text>
</g>
<!-- SharedModule -->
<g id="node2" class="node">
<title>SharedModule</title>
<polygon fill="#8dd3c7" stroke="black" points="230.42,-187 227.42,-191 206.42,-191 203.42,-187 131.58,-187 131.58,-151 230.42,-151 230.42,-187"/>
<text text-anchor="middle" x="181" y="-164.8" font-family="Times,serif" font-size="14.00">SharedModule</text>
</g>
<!-- AppLoggerModule&#45;&gt;SharedModule -->
<g id="edge1" class="edge">
<title>AppLoggerModule&#45;&gt;SharedModule</title>
<path fill="none" stroke="black" d="M181,-122.11C181,-122.11 181,-140.99 181,-140.99"/>
<polygon fill="black" stroke="black" points="177.5,-140.99 181,-150.99 184.5,-140.99 177.5,-140.99"/>
</g>
<!-- AppLoggerModule  -->
<g id="node3" class="node">
<title>AppLoggerModule </title>
<polygon fill="#fb8072" stroke="black" points="364.58,-252 237.42,-252 237.42,-216 364.58,-216 364.58,-252"/>
<text text-anchor="middle" x="301" y="-229.8" font-family="Times,serif" font-size="14.00">AppLoggerModule </text>
</g>
<!-- SharedModule&#45;&gt;AppLoggerModule  -->
<g id="edge2" class="edge">
<title>SharedModule&#45;&gt;AppLoggerModule </title>
<path fill="none" stroke="black" stroke-dasharray="5,2" d="M224.7,-187.11C224.7,-206.34 224.7,-234 224.7,-234 224.7,-234 227.3,-234 227.3,-234"/>
<polygon fill="black" stroke="black" points="227.3,-237.5 237.3,-234 227.3,-230.5 227.3,-237.5"/>
</g>
<!-- PrismaService  -->
<g id="node4" class="node">
<title>PrismaService </title>
<polygon fill="#fb8072" stroke="black" points="219.36,-252 118.64,-252 118.64,-216 219.36,-216 219.36,-252"/>
<text text-anchor="middle" x="169" y="-229.8" font-family="Times,serif" font-size="14.00">PrismaService </text>
</g>
<!-- SharedModule&#45;&gt;PrismaService  -->
<g id="edge3" class="edge">
<title>SharedModule&#45;&gt;PrismaService </title>
<path fill="none" stroke="black" stroke-dasharray="5,2" d="M175.48,-187.11C175.48,-187.11 175.48,-205.99 175.48,-205.99"/>
<polygon fill="black" stroke="black" points="171.98,-205.99 175.48,-215.99 178.98,-205.99 171.98,-205.99"/>
</g>
<!-- PrismaService -->
<g id="node5" class="node">
<title>PrismaService</title>
<ellipse fill="#fdb462" stroke="black" cx="322" cy="-104" rx="66.63" ry="18"/>
<text text-anchor="middle" x="322" y="-99.8" font-family="Times,serif" font-size="14.00">PrismaService</text>
</g>
<!-- PrismaService&#45;&gt;SharedModule -->
<g id="edge4" class="edge">
<title>PrismaService&#45;&gt;SharedModule</title>
<path fill="none" stroke="black" d="M309.99,-121.76C309.99,-141.01 309.99,-169 309.99,-169 309.99,-169 240.5,-169 240.5,-169"/>
<polygon fill="black" stroke="black" points="240.5,-165.5 230.5,-169 240.5,-172.5 240.5,-165.5"/>
</g>
</g>
</svg>
