<?xml version="1.0" encoding="UTF-8" standalone="no"?>
<!DOCTYPE svg PUBLIC "-//W3C//DTD SVG 1.1//EN"
 "http://www.w3.org/Graphics/SVG/1.1/DTD/svg11.dtd">
<!-- Generated by graphviz version 2.47.0 (20210316.0004)
 -->
<!-- Title: dependencies Pages: 1 -->
<svg width="528pt" height="284pt"
 viewBox="0.00 0.00 528.00 284.00" xmlns="http://www.w3.org/2000/svg" xmlns:xlink="http://www.w3.org/1999/xlink">
<g id="graph0" class="graph" transform="scale(1 1) rotate(0) translate(4 280)">
<title>dependencies</title>
<polygon fill="white" stroke="transparent" points="-4,4 -4,-280 524,-280 524,4 -4,4"/>
<text text-anchor="start" x="239.01" y="-42.4" font-family="Times-12" font-weight="bold" font-size="14.00">Legend</text>
<polygon fill="#ffffb3" stroke="transparent" points="26,-10 26,-30 46,-30 46,-10 26,-10"/>
<text text-anchor="start" x="49.63" y="-15.4" font-family="Times-12" font-size="14.00"> &#160;Declarations</text>
<polygon fill="#8dd3c7" stroke="transparent" points="139,-10 139,-30 159,-30 159,-10 139,-10"/>
<text text-anchor="start" x="162.73" y="-15.4" font-family="Times-12" font-size="14.00"> &#160;Module</text>
<polygon fill="#80b1d3" stroke="transparent" points="225,-10 225,-30 245,-30 245,-10 225,-10"/>
<text text-anchor="start" x="248.78" y="-15.4" font-family="Times-12" font-size="14.00"> &#160;Bootstrap</text>
<polygon fill="#fdb462" stroke="transparent" points="322,-10 322,-30 342,-30 342,-10 322,-10"/>
<text text-anchor="start" x="345.67" y="-15.4" font-family="Times-12" font-size="14.00"> &#160;Providers</text>
<polygon fill="#fb8072" stroke="transparent" points="418,-10 418,-30 438,-30 438,-10 418,-10"/>
<text text-anchor="start" x="441.73" y="-15.4" font-family="Times-12" font-size="14.00"> &#160;Exports</text>
<g id="clust1" class="cluster">
<title>cluster_SharedModule</title>
<polygon fill="none" stroke="black" stroke-dasharray="1,5" points="8,-70 8,-268 512,-268 512,-70 8,-70"/>
</g>
<g id="clust4" class="cluster">
<title>cluster_SharedModule_exports</title>
<polygon fill="none" stroke="black" points="115,-208 115,-260 377,-260 377,-208 115,-208"/>
</g>
<g id="clust6" class="cluster">
<title>cluster_SharedModule_providers</title>
<polygon fill="none" stroke="black" points="164,-78 164,-130 504,-130 504,-78 164,-78"/>
</g>
<g id="clust3" class="cluster">
<title>cluster_SharedModule_imports</title>
<polygon fill="none" stroke="black" points="16,-78 16,-130 156,-130 156,-78 16,-78"/>
</g>
<!-- AppLoggerModule -->
<g id="node1" class="node">
<title>AppLoggerModule</title>
<polygon fill="#8dd3c7" stroke="black" points="148.08,-122 145.08,-126 124.08,-126 121.08,-122 23.92,-122 23.92,-86 148.08,-86 148.08,-122"/>
<text text-anchor="middle" x="86" y="-99.8" font-family="Times,serif" font-size="14.00">AppLoggerModule</text>
</g>
<!-- SharedModule -->
<g id="node2" class="node">
<title>SharedModule</title>
<polygon fill="#8dd3c7" stroke="black" points="288.42,-187 285.42,-191 264.42,-191 261.42,-187 189.58,-187 189.58,-151 288.42,-151 288.42,-187"/>
<text text-anchor="middle" x="239" y="-164.8" font-family="Times,serif" font-size="14.00">SharedModule</text>
</g>
<!-- AppLoggerModule&#45;&gt;SharedModule -->
<g id="edge1" class="edge">
<title>AppLoggerModule&#45;&gt;SharedModule</title>
<path fill="none" stroke="black" d="M135.43,-122.11C135.43,-141.34 135.43,-169 135.43,-169 135.43,-169 179.64,-169 179.64,-169"/>
<polygon fill="black" stroke="black" points="179.64,-172.5 189.64,-169 179.64,-165.5 179.64,-172.5"/>
</g>
<!-- AppLoggerModule  -->
<g id="node3" class="node">
<title>AppLoggerModule </title>
<polygon fill="#fb8072" stroke="black" points="368.58,-252 241.42,-252 241.42,-216 368.58,-216 368.58,-252"/>
<text text-anchor="middle" x="305" y="-229.8" font-family="Times,serif" font-size="14.00">AppLoggerModule </text>
</g>
<!-- SharedModule&#45;&gt;AppLoggerModule  -->
<g id="edge2" class="edge">
<title>SharedModule&#45;&gt;AppLoggerModule </title>
<path fill="none" stroke="black" stroke-dasharray="5,2" d="M264.71,-187.11C264.71,-187.11 264.71,-205.99 264.71,-205.99"/>
<polygon fill="black" stroke="black" points="261.21,-205.99 264.71,-215.99 268.21,-205.99 261.21,-205.99"/>
</g>
<!-- PrismaService  -->
<g id="node4" class="node">
<title>PrismaService </title>
<polygon fill="#fb8072" stroke="black" points="223.36,-252 122.64,-252 122.64,-216 223.36,-216 223.36,-252"/>
<text text-anchor="middle" x="173" y="-229.8" font-family="Times,serif" font-size="14.00">PrismaService </text>
</g>
<!-- SharedModule&#45;&gt;PrismaService  -->
<g id="edge3" class="edge">
<title>SharedModule&#45;&gt;PrismaService </title>
<path fill="none" stroke="black" stroke-dasharray="5,2" d="M206.48,-187.11C206.48,-187.11 206.48,-205.99 206.48,-205.99"/>
<polygon fill="black" stroke="black" points="202.98,-205.99 206.48,-215.99 209.98,-205.99 202.98,-205.99"/>
</g>
<!-- LoggingInterceptor -->
<g id="node5" class="node">
<title>LoggingInterceptor</title>
<ellipse fill="#fdb462" stroke="black" cx="410" cy="-104" rx="86.24" ry="18"/>
<text text-anchor="middle" x="410" y="-99.8" font-family="Times,serif" font-size="14.00">LoggingInterceptor</text>
</g>
<!-- LoggingInterceptor&#45;&gt;SharedModule -->
<g id="edge4" class="edge">
<title>LoggingInterceptor&#45;&gt;SharedModule</title>
<path fill="none" stroke="black" d="M346.34,-116.23C346.34,-135.05 346.34,-169 346.34,-169 346.34,-169 298.27,-169 298.27,-169"/>
<polygon fill="black" stroke="black" points="298.27,-165.5 288.27,-169 298.27,-172.5 298.27,-165.5"/>
</g>
<!-- PrismaService -->
<g id="node6" class="node">
<title>PrismaService</title>
<ellipse fill="#fdb462" stroke="black" cx="239" cy="-104" rx="66.63" ry="18"/>
<text text-anchor="middle" x="239" y="-99.8" font-family="Times,serif" font-size="14.00">PrismaService</text>
</g>
<!-- PrismaService&#45;&gt;SharedModule -->
<g id="edge5" class="edge">
<title>PrismaService&#45;&gt;SharedModule</title>
<path fill="none" stroke="black" d="M239,-122.11C239,-122.11 239,-140.99 239,-140.99"/>
<polygon fill="black" stroke="black" points="235.5,-140.99 239,-150.99 242.5,-140.99 235.5,-140.99"/>
</g>
</g>
</svg>
