<?xml version="1.0" encoding="UTF-8" standalone="no"?>
<!DOCTYPE svg PUBLIC "-//W3C//DTD SVG 1.1//EN"
 "http://www.w3.org/Graphics/SVG/1.1/DTD/svg11.dtd">
<!-- Generated by graphviz version 2.47.0 (20210316.0004)
 -->
<!-- Title: dependencies Pages: 1 -->
<svg width="504pt" height="284pt"
 viewBox="0.00 0.00 504.00 284.00" xmlns="http://www.w3.org/2000/svg" xmlns:xlink="http://www.w3.org/1999/xlink">
<g id="graph0" class="graph" transform="scale(1 1) rotate(0) translate(4 280)">
<title>dependencies</title>
<polygon fill="white" stroke="transparent" points="-4,4 -4,-280 500,-280 500,4 -4,4"/>
<text text-anchor="start" x="227.01" y="-42.4" font-family="Times-12" font-weight="bold" font-size="14.00">Legend</text>
<polygon fill="#ffffb3" stroke="transparent" points="14,-10 14,-30 34,-30 34,-10 14,-10"/>
<text text-anchor="start" x="37.63" y="-15.4" font-family="Times-12" font-size="14.00"> &#160;Declarations</text>
<polygon fill="#8dd3c7" stroke="transparent" points="127,-10 127,-30 147,-30 147,-10 127,-10"/>
<text text-anchor="start" x="150.73" y="-15.4" font-family="Times-12" font-size="14.00"> &#160;Module</text>
<polygon fill="#80b1d3" stroke="transparent" points="213,-10 213,-30 233,-30 233,-10 213,-10"/>
<text text-anchor="start" x="236.78" y="-15.4" font-family="Times-12" font-size="14.00"> &#160;Bootstrap</text>
<polygon fill="#fdb462" stroke="transparent" points="310,-10 310,-30 330,-30 330,-10 310,-10"/>
<text text-anchor="start" x="333.67" y="-15.4" font-family="Times-12" font-size="14.00"> &#160;Providers</text>
<polygon fill="#fb8072" stroke="transparent" points="406,-10 406,-30 426,-30 426,-10 406,-10"/>
<text text-anchor="start" x="429.73" y="-15.4" font-family="Times-12" font-size="14.00"> &#160;Exports</text>
<g id="clust1" class="cluster">
<title>cluster_TagsModule</title>
<polygon fill="none" stroke="black" stroke-dasharray="1,5" points="112,-70 112,-268 384,-268 384,-70 112,-70"/>
</g>
<g id="clust4" class="cluster">
<title>cluster_TagsModule_exports</title>
<polygon fill="none" stroke="black" points="201,-208 201,-260 305,-260 305,-208 201,-208"/>
</g>
<g id="clust3" class="cluster">
<title>cluster_TagsModule_imports</title>
<polygon fill="none" stroke="black" points="262,-78 262,-130 376,-130 376,-78 262,-78"/>
</g>
<g id="clust6" class="cluster">
<title>cluster_TagsModule_providers</title>
<polygon fill="none" stroke="black" points="120,-78 120,-130 254,-130 254,-78 120,-78"/>
</g>
<!-- SharedModule -->
<g id="node1" class="node">
<title>SharedModule</title>
<polygon fill="#8dd3c7" stroke="black" points="368.42,-122 365.42,-126 344.42,-126 341.42,-122 269.58,-122 269.58,-86 368.42,-86 368.42,-122"/>
<text text-anchor="middle" x="319" y="-99.8" font-family="Times,serif" font-size="14.00">SharedModule</text>
</g>
<!-- TagsModule -->
<g id="node2" class="node">
<title>TagsModule</title>
<polygon fill="#8dd3c7" stroke="black" points="296.26,-187 293.26,-191 272.26,-191 269.26,-187 209.74,-187 209.74,-151 296.26,-151 296.26,-187"/>
<text text-anchor="middle" x="253" y="-164.8" font-family="Times,serif" font-size="14.00">TagsModule</text>
</g>
<!-- SharedModule&#45;&gt;TagsModule -->
<g id="edge1" class="edge">
<title>SharedModule&#45;&gt;TagsModule</title>
<path fill="none" stroke="black" d="M283.08,-122.11C283.08,-122.11 283.08,-140.99 283.08,-140.99"/>
<polygon fill="black" stroke="black" points="279.58,-140.99 283.08,-150.99 286.58,-140.99 279.58,-140.99"/>
</g>
<!-- TagsService  -->
<g id="node3" class="node">
<title>TagsService </title>
<polygon fill="#fb8072" stroke="black" points="297.19,-252 208.81,-252 208.81,-216 297.19,-216 297.19,-252"/>
<text text-anchor="middle" x="253" y="-229.8" font-family="Times,serif" font-size="14.00">TagsService </text>
</g>
<!-- TagsModule&#45;&gt;TagsService  -->
<g id="edge2" class="edge">
<title>TagsModule&#45;&gt;TagsService </title>
<path fill="none" stroke="black" stroke-dasharray="5,2" d="M253,-187.11C253,-187.11 253,-205.99 253,-205.99"/>
<polygon fill="black" stroke="black" points="249.5,-205.99 253,-215.99 256.5,-205.99 249.5,-205.99"/>
</g>
<!-- TagsService -->
<g id="node4" class="node">
<title>TagsService</title>
<ellipse fill="#fdb462" stroke="black" cx="187" cy="-104" rx="58.53" ry="18"/>
<text text-anchor="middle" x="187" y="-99.8" font-family="Times,serif" font-size="14.00">TagsService</text>
</g>
<!-- TagsService&#45;&gt;TagsModule -->
<g id="edge3" class="edge">
<title>TagsService&#45;&gt;TagsModule</title>
<path fill="none" stroke="black" d="M227.69,-117.15C227.69,-117.15 227.69,-140.69 227.69,-140.69"/>
<polygon fill="black" stroke="black" points="224.19,-140.69 227.69,-150.69 231.19,-140.69 224.19,-140.69"/>
</g>
</g>
</svg>
