<?xml version="1.0" encoding="UTF-8" standalone="no"?>
<!DOCTYPE svg PUBLIC "-//W3C//DTD SVG 1.1//EN"
 "http://www.w3.org/Graphics/SVG/1.1/DTD/svg11.dtd">
<!-- Generated by graphviz version 2.47.0 (20210316.0004)
 -->
<!-- Title: dependencies Pages: 1 -->
<svg width="504pt" height="284pt"
 viewBox="0.00 0.00 504.00 284.00" xmlns="http://www.w3.org/2000/svg" xmlns:xlink="http://www.w3.org/1999/xlink">
<g id="graph0" class="graph" transform="scale(1 1) rotate(0) translate(4 280)">
<title>dependencies</title>
<polygon fill="white" stroke="transparent" points="-4,4 -4,-280 500,-280 500,4 -4,4"/>
<text text-anchor="start" x="227.01" y="-42.4" font-family="Times-12" font-weight="bold" font-size="14.00">Legend</text>
<polygon fill="#ffffb3" stroke="transparent" points="14,-10 14,-30 34,-30 34,-10 14,-10"/>
<text text-anchor="start" x="37.63" y="-15.4" font-family="Times-12" font-size="14.00"> &#160;Declarations</text>
<polygon fill="#8dd3c7" stroke="transparent" points="127,-10 127,-30 147,-30 147,-10 127,-10"/>
<text text-anchor="start" x="150.73" y="-15.4" font-family="Times-12" font-size="14.00"> &#160;Module</text>
<polygon fill="#80b1d3" stroke="transparent" points="213,-10 213,-30 233,-30 233,-10 213,-10"/>
<text text-anchor="start" x="236.78" y="-15.4" font-family="Times-12" font-size="14.00"> &#160;Bootstrap</text>
<polygon fill="#fdb462" stroke="transparent" points="310,-10 310,-30 330,-30 330,-10 310,-10"/>
<text text-anchor="start" x="333.67" y="-15.4" font-family="Times-12" font-size="14.00"> &#160;Providers</text>
<polygon fill="#fb8072" stroke="transparent" points="406,-10 406,-30 426,-30 426,-10 406,-10"/>
<text text-anchor="start" x="429.73" y="-15.4" font-family="Times-12" font-size="14.00"> &#160;Exports</text>
<g id="clust1" class="cluster">
<title>cluster_MemberModule</title>
<polygon fill="none" stroke="black" stroke-dasharray="1,5" points="98,-70 98,-268 398,-268 398,-70 98,-70"/>
</g>
<g id="clust6" class="cluster">
<title>cluster_MemberModule_providers</title>
<polygon fill="none" stroke="black" points="228,-78 228,-130 390,-130 390,-78 228,-78"/>
</g>
<g id="clust4" class="cluster">
<title>cluster_MemberModule_exports</title>
<polygon fill="none" stroke="black" points="176,-208 176,-260 300,-260 300,-208 176,-208"/>
</g>
<g id="clust3" class="cluster">
<title>cluster_MemberModule_imports</title>
<polygon fill="none" stroke="black" points="106,-78 106,-130 220,-130 220,-78 106,-78"/>
</g>
<!-- SharedModule -->
<g id="node1" class="node">
<title>SharedModule</title>
<polygon fill="#8dd3c7" stroke="black" points="212.42,-122 209.42,-126 188.42,-126 185.42,-122 113.58,-122 113.58,-86 212.42,-86 212.42,-122"/>
<text text-anchor="middle" x="163" y="-99.8" font-family="Times,serif" font-size="14.00">SharedModule</text>
</g>
<!-- MemberModule -->
<g id="node2" class="node">
<title>MemberModule</title>
<polygon fill="#8dd3c7" stroke="black" points="291.47,-187 288.47,-191 267.47,-191 264.47,-187 184.53,-187 184.53,-151 291.47,-151 291.47,-187"/>
<text text-anchor="middle" x="238" y="-164.8" font-family="Times,serif" font-size="14.00">MemberModule</text>
</g>
<!-- SharedModule&#45;&gt;MemberModule -->
<g id="edge1" class="edge">
<title>SharedModule&#45;&gt;MemberModule</title>
<path fill="none" stroke="black" d="M198.36,-122.11C198.36,-122.11 198.36,-140.99 198.36,-140.99"/>
<polygon fill="black" stroke="black" points="194.86,-140.99 198.36,-150.99 201.86,-140.99 194.86,-140.99"/>
</g>
<!-- MemberService  -->
<g id="node3" class="node">
<title>MemberService </title>
<polygon fill="#fb8072" stroke="black" points="292.4,-252 183.6,-252 183.6,-216 292.4,-216 292.4,-252"/>
<text text-anchor="middle" x="238" y="-229.8" font-family="Times,serif" font-size="14.00">MemberService </text>
</g>
<!-- MemberModule&#45;&gt;MemberService  -->
<g id="edge2" class="edge">
<title>MemberModule&#45;&gt;MemberService </title>
<path fill="none" stroke="black" stroke-dasharray="5,2" d="M238,-187.11C238,-187.11 238,-205.99 238,-205.99"/>
<polygon fill="black" stroke="black" points="234.5,-205.99 238,-215.99 241.5,-205.99 234.5,-205.99"/>
</g>
<!-- MemberService -->
<g id="node4" class="node">
<title>MemberService</title>
<ellipse fill="#fdb462" stroke="black" cx="309" cy="-104" rx="72.91" ry="18"/>
<text text-anchor="middle" x="309" y="-99.8" font-family="Times,serif" font-size="14.00">MemberService</text>
</g>
<!-- MemberService&#45;&gt;MemberModule -->
<g id="edge3" class="edge">
<title>MemberService&#45;&gt;MemberModule</title>
<path fill="none" stroke="black" d="M263.89,-118.43C263.89,-118.43 263.89,-140.89 263.89,-140.89"/>
<polygon fill="black" stroke="black" points="260.39,-140.89 263.89,-150.89 267.39,-140.89 260.39,-140.89"/>
</g>
</g>
</svg>
