<?xml version="1.0" encoding="UTF-8" standalone="no"?>
<!DOCTYPE svg PUBLIC "-//W3C//DTD SVG 1.1//EN"
 "http://www.w3.org/Graphics/SVG/1.1/DTD/svg11.dtd">
<!-- Generated by graphviz version 2.47.0 (20210316.0004)
 -->
<!-- Title: dependencies Pages: 1 -->
<svg width="626pt" height="284pt"
 viewBox="0.00 0.00 626.00 284.00" xmlns="http://www.w3.org/2000/svg" xmlns:xlink="http://www.w3.org/1999/xlink">
<g id="graph0" class="graph" transform="scale(1 1) rotate(0) translate(4 280)">
<title>dependencies</title>
<polygon fill="white" stroke="transparent" points="-4,4 -4,-280 622,-280 622,4 -4,4"/>
<text text-anchor="start" x="288.01" y="-42.4" font-family="Times-12" font-weight="bold" font-size="14.00">Legend</text>
<polygon fill="#ffffb3" stroke="transparent" points="75,-10 75,-30 95,-30 95,-10 75,-10"/>
<text text-anchor="start" x="98.63" y="-15.4" font-family="Times-12" font-size="14.00"> &#160;Declarations</text>
<polygon fill="#8dd3c7" stroke="transparent" points="188,-10 188,-30 208,-30 208,-10 188,-10"/>
<text text-anchor="start" x="211.73" y="-15.4" font-family="Times-12" font-size="14.00"> &#160;Module</text>
<polygon fill="#80b1d3" stroke="transparent" points="274,-10 274,-30 294,-30 294,-10 274,-10"/>
<text text-anchor="start" x="297.78" y="-15.4" font-family="Times-12" font-size="14.00"> &#160;Bootstrap</text>
<polygon fill="#fdb462" stroke="transparent" points="371,-10 371,-30 391,-30 391,-10 371,-10"/>
<text text-anchor="start" x="394.67" y="-15.4" font-family="Times-12" font-size="14.00"> &#160;Providers</text>
<polygon fill="#fb8072" stroke="transparent" points="467,-10 467,-30 487,-30 487,-10 467,-10"/>
<text text-anchor="start" x="490.73" y="-15.4" font-family="Times-12" font-size="14.00"> &#160;Exports</text>
<g id="clust1" class="cluster">
<title>cluster_UserModule</title>
<polygon fill="none" stroke="black" stroke-dasharray="1,5" points="8,-70 8,-268 610,-268 610,-70 8,-70"/>
</g>
<g id="clust6" class="cluster">
<title>cluster_UserModule_providers</title>
<polygon fill="none" stroke="black" points="138,-78 138,-130 602,-130 602,-78 138,-78"/>
</g>
<g id="clust4" class="cluster">
<title>cluster_UserModule_exports</title>
<polygon fill="none" stroke="black" points="226,-208 226,-260 330,-260 330,-208 226,-208"/>
</g>
<g id="clust3" class="cluster">
<title>cluster_UserModule_imports</title>
<polygon fill="none" stroke="black" points="16,-78 16,-130 130,-130 130,-78 16,-78"/>
</g>
<!-- SharedModule -->
<g id="node1" class="node">
<title>SharedModule</title>
<polygon fill="#8dd3c7" stroke="black" points="122.42,-122 119.42,-126 98.42,-126 95.42,-122 23.58,-122 23.58,-86 122.42,-86 122.42,-122"/>
<text text-anchor="middle" x="73" y="-99.8" font-family="Times,serif" font-size="14.00">SharedModule</text>
</g>
<!-- UserModule -->
<g id="node2" class="node">
<title>UserModule</title>
<polygon fill="#8dd3c7" stroke="black" points="320.98,-187 317.98,-191 296.98,-191 293.98,-187 235.02,-187 235.02,-151 320.98,-151 320.98,-187"/>
<text text-anchor="middle" x="278" y="-164.8" font-family="Times,serif" font-size="14.00">UserModule</text>
</g>
<!-- SharedModule&#45;&gt;UserModule -->
<g id="edge1" class="edge">
<title>SharedModule&#45;&gt;UserModule</title>
<path fill="none" stroke="black" d="M73,-122.11C73,-141.34 73,-169 73,-169 73,-169 224.52,-169 224.52,-169"/>
<polygon fill="black" stroke="black" points="224.52,-172.5 234.52,-169 224.52,-165.5 224.52,-172.5"/>
</g>
<!-- UserService  -->
<g id="node3" class="node">
<title>UserService </title>
<polygon fill="#fb8072" stroke="black" points="321.9,-252 234.1,-252 234.1,-216 321.9,-216 321.9,-252"/>
<text text-anchor="middle" x="278" y="-229.8" font-family="Times,serif" font-size="14.00">UserService </text>
</g>
<!-- UserModule&#45;&gt;UserService  -->
<g id="edge2" class="edge">
<title>UserModule&#45;&gt;UserService </title>
<path fill="none" stroke="black" stroke-dasharray="5,2" d="M278,-187.11C278,-187.11 278,-205.99 278,-205.99"/>
<polygon fill="black" stroke="black" points="274.5,-205.99 278,-215.99 281.5,-205.99 274.5,-205.99"/>
</g>
<!-- JwtAuthStrategy -->
<g id="node4" class="node">
<title>JwtAuthStrategy</title>
<ellipse fill="#fdb462" stroke="black" cx="518" cy="-104" rx="75.88" ry="18"/>
<text text-anchor="middle" x="518" y="-99.8" font-family="Times,serif" font-size="14.00">JwtAuthStrategy</text>
</g>
<!-- JwtAuthStrategy&#45;&gt;UserModule -->
<g id="edge3" class="edge">
<title>JwtAuthStrategy&#45;&gt;UserModule</title>
<path fill="none" stroke="black" d="M518,-122.11C518,-141.34 518,-169 518,-169 518,-169 331.18,-169 331.18,-169"/>
<polygon fill="black" stroke="black" points="331.18,-165.5 321.18,-169 331.18,-172.5 331.18,-165.5"/>
</g>
<!-- UserAclService -->
<g id="node5" class="node">
<title>UserAclService</title>
<ellipse fill="#fdb462" stroke="black" cx="352" cy="-104" rx="72.32" ry="18"/>
<text text-anchor="middle" x="352" y="-99.8" font-family="Times,serif" font-size="14.00">UserAclService</text>
</g>
<!-- UserAclService&#45;&gt;UserModule -->
<g id="edge4" class="edge">
<title>UserAclService&#45;&gt;UserModule</title>
<path fill="none" stroke="black" d="M300.41,-116.84C300.41,-116.84 300.41,-140.52 300.41,-140.52"/>
<polygon fill="black" stroke="black" points="296.91,-140.52 300.41,-150.52 303.91,-140.52 296.91,-140.52"/>
</g>
<!-- UserService -->
<g id="node6" class="node">
<title>UserService</title>
<ellipse fill="#fdb462" stroke="black" cx="204" cy="-104" rx="58.44" ry="18"/>
<text text-anchor="middle" x="204" y="-99.8" font-family="Times,serif" font-size="14.00">UserService</text>
</g>
<!-- UserService&#45;&gt;UserModule -->
<g id="edge5" class="edge">
<title>UserService&#45;&gt;UserModule</title>
<path fill="none" stroke="black" d="M248.62,-115.62C248.62,-115.62 248.62,-140.85 248.62,-140.85"/>
<polygon fill="black" stroke="black" points="245.12,-140.85 248.62,-150.85 252.12,-140.85 245.12,-140.85"/>
</g>
</g>
</svg>
