<?xml version="1.0" encoding="UTF-8" standalone="no"?>
<!DOCTYPE svg PUBLIC "-//W3C//DTD SVG 1.1//EN"
 "http://www.w3.org/Graphics/SVG/1.1/DTD/svg11.dtd">
<!-- Generated by graphviz version 2.47.0 (20210316.0004)
 -->
<!-- Title: dependencies Pages: 1 -->
<svg width="626pt" height="284pt"
 viewBox="0.00 0.00 626.00 284.00" xmlns="http://www.w3.org/2000/svg" xmlns:xlink="http://www.w3.org/1999/xlink">
<g id="graph0" class="graph" transform="scale(1 1) rotate(0) translate(4 280)">
<title>dependencies</title>
<polygon fill="white" stroke="transparent" points="-4,4 -4,-280 622,-280 622,4 -4,4"/>
<text text-anchor="start" x="288.01" y="-42.4" font-family="Times-12" font-weight="bold" font-size="14.00">Legend</text>
<polygon fill="#ffffb3" stroke="transparent" points="75,-10 75,-30 95,-30 95,-10 75,-10"/>
<text text-anchor="start" x="98.63" y="-15.4" font-family="Times-12" font-size="14.00"> &#160;Declarations</text>
<polygon fill="#8dd3c7" stroke="transparent" points="188,-10 188,-30 208,-30 208,-10 188,-10"/>
<text text-anchor="start" x="211.73" y="-15.4" font-family="Times-12" font-size="14.00"> &#160;Module</text>
<polygon fill="#80b1d3" stroke="transparent" points="274,-10 274,-30 294,-30 294,-10 274,-10"/>
<text text-anchor="start" x="297.78" y="-15.4" font-family="Times-12" font-size="14.00"> &#160;Bootstrap</text>
<polygon fill="#fdb462" stroke="transparent" points="371,-10 371,-30 391,-30 391,-10 371,-10"/>
<text text-anchor="start" x="394.67" y="-15.4" font-family="Times-12" font-size="14.00"> &#160;Providers</text>
<polygon fill="#fb8072" stroke="transparent" points="467,-10 467,-30 487,-30 487,-10 467,-10"/>
<text text-anchor="start" x="490.73" y="-15.4" font-family="Times-12" font-size="14.00"> &#160;Exports</text>
<g id="clust1" class="cluster">
<title>cluster_UserModule</title>
<polygon fill="none" stroke="black" stroke-dasharray="1,5" points="8,-70 8,-268 610,-268 610,-70 8,-70"/>
</g>
<g id="clust3" class="cluster">
<title>cluster_UserModule_imports</title>
<polygon fill="none" stroke="black" points="488,-78 488,-130 602,-130 602,-78 488,-78"/>
</g>
<g id="clust4" class="cluster">
<title>cluster_UserModule_exports</title>
<polygon fill="none" stroke="black" points="261,-208 261,-260 365,-260 365,-208 261,-208"/>
</g>
<g id="clust6" class="cluster">
<title>cluster_UserModule_providers</title>
<polygon fill="none" stroke="black" points="16,-78 16,-130 480,-130 480,-78 16,-78"/>
</g>
<!-- SharedModule -->
<g id="node1" class="node">
<title>SharedModule</title>
<polygon fill="#8dd3c7" stroke="black" points="594.42,-122 591.42,-126 570.42,-126 567.42,-122 495.58,-122 495.58,-86 594.42,-86 594.42,-122"/>
<text text-anchor="middle" x="545" y="-99.8" font-family="Times,serif" font-size="14.00">SharedModule</text>
</g>
<!-- UserModule -->
<g id="node2" class="node">
<title>UserModule</title>
<polygon fill="#8dd3c7" stroke="black" points="355.98,-187 352.98,-191 331.98,-191 328.98,-187 270.02,-187 270.02,-151 355.98,-151 355.98,-187"/>
<text text-anchor="middle" x="313" y="-164.8" font-family="Times,serif" font-size="14.00">UserModule</text>
</g>
<!-- SharedModule&#45;&gt;UserModule -->
<g id="edge1" class="edge">
<title>SharedModule&#45;&gt;UserModule</title>
<path fill="none" stroke="black" d="M545,-122.11C545,-141.34 545,-169 545,-169 545,-169 366.09,-169 366.09,-169"/>
<polygon fill="black" stroke="black" points="366.09,-165.5 356.09,-169 366.09,-172.5 366.09,-165.5"/>
</g>
<!-- UserService  -->
<g id="node3" class="node">
<title>UserService </title>
<polygon fill="#fb8072" stroke="black" points="356.9,-252 269.1,-252 269.1,-216 356.9,-216 356.9,-252"/>
<text text-anchor="middle" x="313" y="-229.8" font-family="Times,serif" font-size="14.00">UserService </text>
</g>
<!-- UserModule&#45;&gt;UserService  -->
<g id="edge2" class="edge">
<title>UserModule&#45;&gt;UserService </title>
<path fill="none" stroke="black" stroke-dasharray="5,2" d="M313,-187.11C313,-187.11 313,-205.99 313,-205.99"/>
<polygon fill="black" stroke="black" points="309.5,-205.99 313,-215.99 316.5,-205.99 309.5,-205.99"/>
</g>
<!-- JwtAuthStrategy -->
<g id="node4" class="node">
<title>JwtAuthStrategy</title>
<ellipse fill="#fdb462" stroke="black" cx="396" cy="-104" rx="75.88" ry="18"/>
<text text-anchor="middle" x="396" y="-99.8" font-family="Times,serif" font-size="14.00">JwtAuthStrategy</text>
</g>
<!-- JwtAuthStrategy&#45;&gt;UserModule -->
<g id="edge3" class="edge">
<title>JwtAuthStrategy&#45;&gt;UserModule</title>
<path fill="none" stroke="black" d="M338.02,-115.92C338.02,-115.92 338.02,-140.77 338.02,-140.77"/>
<polygon fill="black" stroke="black" points="334.52,-140.77 338.02,-150.77 341.52,-140.77 334.52,-140.77"/>
</g>
<!-- UserAclService -->
<g id="node5" class="node">
<title>UserAclService</title>
<ellipse fill="#fdb462" stroke="black" cx="230" cy="-104" rx="72.32" ry="18"/>
<text text-anchor="middle" x="230" y="-99.8" font-family="Times,serif" font-size="14.00">UserAclService</text>
</g>
<!-- UserAclService&#45;&gt;UserModule -->
<g id="edge4" class="edge">
<title>UserAclService&#45;&gt;UserModule</title>
<path fill="none" stroke="black" d="M286.09,-115.62C286.09,-115.62 286.09,-140.85 286.09,-140.85"/>
<polygon fill="black" stroke="black" points="282.59,-140.85 286.09,-150.85 289.59,-140.85 282.59,-140.85"/>
</g>
<!-- UserService -->
<g id="node6" class="node">
<title>UserService</title>
<ellipse fill="#fdb462" stroke="black" cx="82" cy="-104" rx="58.44" ry="18"/>
<text text-anchor="middle" x="82" y="-99.8" font-family="Times,serif" font-size="14.00">UserService</text>
</g>
<!-- UserService&#45;&gt;UserModule -->
<g id="edge5" class="edge">
<title>UserService&#45;&gt;UserModule</title>
<path fill="none" stroke="black" d="M82,-122.11C82,-141.34 82,-169 82,-169 82,-169 259.82,-169 259.82,-169"/>
<polygon fill="black" stroke="black" points="259.82,-172.5 269.82,-169 259.82,-165.5 259.82,-172.5"/>
</g>
</g>
</svg>
