<?xml version="1.0" encoding="UTF-8" standalone="no"?>
<!DOCTYPE svg PUBLIC "-//W3C//DTD SVG 1.1//EN"
 "http://www.w3.org/Graphics/SVG/1.1/DTD/svg11.dtd">
<!-- Generated by graphviz version 2.47.0 (20210316.0004)
 -->
<!-- Title: dependencies Pages: 1 -->
<svg width="504pt" height="284pt"
 viewBox="0.00 0.00 504.00 284.00" xmlns="http://www.w3.org/2000/svg" xmlns:xlink="http://www.w3.org/1999/xlink">
<g id="graph0" class="graph" transform="scale(1 1) rotate(0) translate(4 280)">
<title>dependencies</title>
<polygon fill="white" stroke="transparent" points="-4,4 -4,-280 500,-280 500,4 -4,4"/>
<text text-anchor="start" x="227.01" y="-42.4" font-family="Times-12" font-weight="bold" font-size="14.00">Legend</text>
<polygon fill="#ffffb3" stroke="transparent" points="14,-10 14,-30 34,-30 34,-10 14,-10"/>
<text text-anchor="start" x="37.63" y="-15.4" font-family="Times-12" font-size="14.00"> &#160;Declarations</text>
<polygon fill="#8dd3c7" stroke="transparent" points="127,-10 127,-30 147,-30 147,-10 127,-10"/>
<text text-anchor="start" x="150.73" y="-15.4" font-family="Times-12" font-size="14.00"> &#160;Module</text>
<polygon fill="#80b1d3" stroke="transparent" points="213,-10 213,-30 233,-30 233,-10 213,-10"/>
<text text-anchor="start" x="236.78" y="-15.4" font-family="Times-12" font-size="14.00"> &#160;Bootstrap</text>
<polygon fill="#fdb462" stroke="transparent" points="310,-10 310,-30 330,-30 330,-10 310,-10"/>
<text text-anchor="start" x="333.67" y="-15.4" font-family="Times-12" font-size="14.00"> &#160;Providers</text>
<polygon fill="#fb8072" stroke="transparent" points="406,-10 406,-30 426,-30 426,-10 406,-10"/>
<text text-anchor="start" x="429.73" y="-15.4" font-family="Times-12" font-size="14.00"> &#160;Exports</text>
<g id="clust1" class="cluster">
<title>cluster_AiAssistantModule</title>
<polygon fill="none" stroke="black" stroke-dasharray="1,5" points="86,-70 86,-268 410,-268 410,-70 86,-70"/>
</g>
<g id="clust3" class="cluster">
<title>cluster_AiAssistantModule_imports</title>
<polygon fill="none" stroke="black" points="288,-78 288,-130 402,-130 402,-78 288,-78"/>
</g>
<g id="clust4" class="cluster">
<title>cluster_AiAssistantModule_exports</title>
<polygon fill="none" stroke="black" points="188,-208 188,-260 330,-260 330,-208 188,-208"/>
</g>
<g id="clust6" class="cluster">
<title>cluster_AiAssistantModule_providers</title>
<polygon fill="none" stroke="black" points="94,-78 94,-130 280,-130 280,-78 94,-78"/>
</g>
<!-- SharedModule -->
<g id="node1" class="node">
<title>SharedModule</title>
<polygon fill="#8dd3c7" stroke="black" points="394.42,-122 391.42,-126 370.42,-126 367.42,-122 295.58,-122 295.58,-86 394.42,-86 394.42,-122"/>
<text text-anchor="middle" x="345" y="-99.8" font-family="Times,serif" font-size="14.00">SharedModule</text>
</g>
<!-- AiAssistantModule -->
<g id="node2" class="node">
<title>AiAssistantModule</title>
<polygon fill="#8dd3c7" stroke="black" points="321.37,-187 318.37,-191 297.37,-191 294.37,-187 196.63,-187 196.63,-151 321.37,-151 321.37,-187"/>
<text text-anchor="middle" x="259" y="-164.8" font-family="Times,serif" font-size="14.00">AiAssistantModule</text>
</g>
<!-- SharedModule&#45;&gt;AiAssistantModule -->
<g id="edge1" class="edge">
<title>SharedModule&#45;&gt;AiAssistantModule</title>
<path fill="none" stroke="black" d="M308.61,-122.11C308.61,-122.11 308.61,-140.99 308.61,-140.99"/>
<polygon fill="black" stroke="black" points="305.11,-140.99 308.61,-150.99 312.11,-140.99 305.11,-140.99"/>
</g>
<!-- AiAssistantService  -->
<g id="node3" class="node">
<title>AiAssistantService </title>
<polygon fill="#fb8072" stroke="black" points="322.3,-252 195.7,-252 195.7,-216 322.3,-216 322.3,-252"/>
<text text-anchor="middle" x="259" y="-229.8" font-family="Times,serif" font-size="14.00">AiAssistantService </text>
</g>
<!-- AiAssistantModule&#45;&gt;AiAssistantService  -->
<g id="edge2" class="edge">
<title>AiAssistantModule&#45;&gt;AiAssistantService </title>
<path fill="none" stroke="black" stroke-dasharray="5,2" d="M259,-187.11C259,-187.11 259,-205.99 259,-205.99"/>
<polygon fill="black" stroke="black" points="255.5,-205.99 259,-215.99 262.5,-205.99 255.5,-205.99"/>
</g>
<!-- AiAssistantService -->
<g id="node4" class="node">
<title>AiAssistantService</title>
<ellipse fill="#fdb462" stroke="black" cx="187" cy="-104" rx="85.1" ry="18"/>
<text text-anchor="middle" x="187" y="-99.8" font-family="Times,serif" font-size="14.00">AiAssistantService</text>
</g>
<!-- AiAssistantService&#45;&gt;AiAssistantModule -->
<g id="edge3" class="edge">
<title>AiAssistantService&#45;&gt;AiAssistantModule</title>
<path fill="none" stroke="black" d="M234.31,-119.08C234.31,-119.08 234.31,-140.76 234.31,-140.76"/>
<polygon fill="black" stroke="black" points="230.81,-140.76 234.31,-150.76 237.81,-140.76 230.81,-140.76"/>
</g>
</g>
</svg>
