<?xml version="1.0" encoding="UTF-8" standalone="no"?>
<!DOCTYPE svg PUBLIC "-//W3C//DTD SVG 1.1//EN"
 "http://www.w3.org/Graphics/SVG/1.1/DTD/svg11.dtd">
<!-- Generated by graphviz version 2.47.0 (20210316.0004)
 -->
<!-- Title: dependencies Pages: 1 -->
<svg width="528pt" height="284pt"
 viewBox="0.00 0.00 528.00 284.00" xmlns="http://www.w3.org/2000/svg" xmlns:xlink="http://www.w3.org/1999/xlink">
<g id="graph0" class="graph" transform="scale(1 1) rotate(0) translate(4 280)">
<title>dependencies</title>
<polygon fill="white" stroke="transparent" points="-4,4 -4,-280 524,-280 524,4 -4,4"/>
<text text-anchor="start" x="239.01" y="-42.4" font-family="Times-12" font-weight="bold" font-size="14.00">Legend</text>
<polygon fill="#ffffb3" stroke="transparent" points="26,-10 26,-30 46,-30 46,-10 26,-10"/>
<text text-anchor="start" x="49.63" y="-15.4" font-family="Times-12" font-size="14.00"> &#160;Declarations</text>
<polygon fill="#8dd3c7" stroke="transparent" points="139,-10 139,-30 159,-30 159,-10 139,-10"/>
<text text-anchor="start" x="162.73" y="-15.4" font-family="Times-12" font-size="14.00"> &#160;Module</text>
<polygon fill="#80b1d3" stroke="transparent" points="225,-10 225,-30 245,-30 245,-10 225,-10"/>
<text text-anchor="start" x="248.78" y="-15.4" font-family="Times-12" font-size="14.00"> &#160;Bootstrap</text>
<polygon fill="#fdb462" stroke="transparent" points="322,-10 322,-30 342,-30 342,-10 322,-10"/>
<text text-anchor="start" x="345.67" y="-15.4" font-family="Times-12" font-size="14.00"> &#160;Providers</text>
<polygon fill="#fb8072" stroke="transparent" points="418,-10 418,-30 438,-30 438,-10 418,-10"/>
<text text-anchor="start" x="441.73" y="-15.4" font-family="Times-12" font-size="14.00"> &#160;Exports</text>
<g id="clust1" class="cluster">
<title>cluster_OrganizationModule</title>
<polygon fill="none" stroke="black" stroke-dasharray="1,5" points="8,-70 8,-268 512,-268 512,-70 8,-70"/>
</g>
<g id="clust4" class="cluster">
<title>cluster_OrganizationModule_exports</title>
<polygon fill="none" stroke="black" points="161,-208 161,-260 311,-260 311,-208 161,-208"/>
</g>
<g id="clust6" class="cluster">
<title>cluster_OrganizationModule_providers</title>
<polygon fill="none" stroke="black" points="138,-78 138,-130 504,-130 504,-78 138,-78"/>
</g>
<g id="clust3" class="cluster">
<title>cluster_OrganizationModule_imports</title>
<polygon fill="none" stroke="black" points="16,-78 16,-130 130,-130 130,-78 16,-78"/>
</g>
<!-- SharedModule -->
<g id="node1" class="node">
<title>SharedModule</title>
<polygon fill="#8dd3c7" stroke="black" points="122.42,-122 119.42,-126 98.42,-126 95.42,-122 23.58,-122 23.58,-86 122.42,-86 122.42,-122"/>
<text text-anchor="middle" x="73" y="-99.8" font-family="Times,serif" font-size="14.00">SharedModule</text>
</g>
<!-- OrganizationModule -->
<g id="node2" class="node">
<title>OrganizationModule</title>
<polygon fill="#8dd3c7" stroke="black" points="302.13,-187 299.13,-191 278.13,-191 275.13,-187 169.87,-187 169.87,-151 302.13,-151 302.13,-187"/>
<text text-anchor="middle" x="236" y="-164.8" font-family="Times,serif" font-size="14.00">OrganizationModule</text>
</g>
<!-- SharedModule&#45;&gt;OrganizationModule -->
<g id="edge1" class="edge">
<title>SharedModule&#45;&gt;OrganizationModule</title>
<path fill="none" stroke="black" d="M73,-122.11C73,-141.34 73,-169 73,-169 73,-169 159.7,-169 159.7,-169"/>
<polygon fill="black" stroke="black" points="159.7,-172.5 169.7,-169 159.7,-165.5 159.7,-172.5"/>
</g>
<!-- OrganizationService  -->
<g id="node3" class="node">
<title>OrganizationService </title>
<polygon fill="#fb8072" stroke="black" points="303.06,-252 168.94,-252 168.94,-216 303.06,-216 303.06,-252"/>
<text text-anchor="middle" x="236" y="-229.8" font-family="Times,serif" font-size="14.00">OrganizationService </text>
</g>
<!-- OrganizationModule&#45;&gt;OrganizationService  -->
<g id="edge2" class="edge">
<title>OrganizationModule&#45;&gt;OrganizationService </title>
<path fill="none" stroke="black" stroke-dasharray="5,2" d="M236,-187.11C236,-187.11 236,-205.99 236,-205.99"/>
<polygon fill="black" stroke="black" points="232.5,-205.99 236,-215.99 239.5,-205.99 232.5,-205.99"/>
</g>
<!-- JwtAuthStrategy -->
<g id="node4" class="node">
<title>JwtAuthStrategy</title>
<ellipse fill="#fdb462" stroke="black" cx="420" cy="-104" rx="75.88" ry="18"/>
<text text-anchor="middle" x="420" y="-99.8" font-family="Times,serif" font-size="14.00">JwtAuthStrategy</text>
</g>
<!-- JwtAuthStrategy&#45;&gt;OrganizationModule -->
<g id="edge3" class="edge">
<title>JwtAuthStrategy&#45;&gt;OrganizationModule</title>
<path fill="none" stroke="black" d="M420,-122.11C420,-141.34 420,-169 420,-169 420,-169 312.17,-169 312.17,-169"/>
<polygon fill="black" stroke="black" points="312.17,-165.5 302.17,-169 312.17,-172.5 312.17,-165.5"/>
</g>
<!-- OrganizationService -->
<g id="node5" class="node">
<title>OrganizationService</title>
<ellipse fill="#fdb462" stroke="black" cx="236" cy="-104" rx="90.31" ry="18"/>
<text text-anchor="middle" x="236" y="-99.8" font-family="Times,serif" font-size="14.00">OrganizationService</text>
</g>
<!-- OrganizationService&#45;&gt;OrganizationModule -->
<g id="edge4" class="edge">
<title>OrganizationService&#45;&gt;OrganizationModule</title>
<path fill="none" stroke="black" d="M236,-122.11C236,-122.11 236,-140.99 236,-140.99"/>
<polygon fill="black" stroke="black" points="232.5,-140.99 236,-150.99 239.5,-140.99 232.5,-140.99"/>
</g>
</g>
</svg>
