<?xml version="1.0" encoding="UTF-8" standalone="no"?>
<!DOCTYPE svg PUBLIC "-//W3C//DTD SVG 1.1//EN"
 "http://www.w3.org/Graphics/SVG/1.1/DTD/svg11.dtd">
<!-- Generated by graphviz version 2.47.0 (20210316.0004)
 -->
<!-- Title: dependencies Pages: 1 -->
<svg width="674pt" height="284pt"
 viewBox="0.00 0.00 674.00 284.00" xmlns="http://www.w3.org/2000/svg" xmlns:xlink="http://www.w3.org/1999/xlink">
<g id="graph0" class="graph" transform="scale(1 1) rotate(0) translate(4 280)">
<title>dependencies</title>
<polygon fill="white" stroke="transparent" points="-4,4 -4,-280 670,-280 670,4 -4,4"/>
<text text-anchor="start" x="312.01" y="-42.4" font-family="Times-12" font-weight="bold" font-size="14.00">Legend</text>
<polygon fill="#ffffb3" stroke="transparent" points="99,-10 99,-30 119,-30 119,-10 99,-10"/>
<text text-anchor="start" x="122.63" y="-15.4" font-family="Times-12" font-size="14.00"> &#160;Declarations</text>
<polygon fill="#8dd3c7" stroke="transparent" points="212,-10 212,-30 232,-30 232,-10 212,-10"/>
<text text-anchor="start" x="235.73" y="-15.4" font-family="Times-12" font-size="14.00"> &#160;Module</text>
<polygon fill="#80b1d3" stroke="transparent" points="298,-10 298,-30 318,-30 318,-10 298,-10"/>
<text text-anchor="start" x="321.78" y="-15.4" font-family="Times-12" font-size="14.00"> &#160;Bootstrap</text>
<polygon fill="#fdb462" stroke="transparent" points="395,-10 395,-30 415,-30 415,-10 395,-10"/>
<text text-anchor="start" x="418.67" y="-15.4" font-family="Times-12" font-size="14.00"> &#160;Providers</text>
<polygon fill="#fb8072" stroke="transparent" points="491,-10 491,-30 511,-30 511,-10 491,-10"/>
<text text-anchor="start" x="514.73" y="-15.4" font-family="Times-12" font-size="14.00"> &#160;Exports</text>
<g id="clust1" class="cluster">
<title>cluster_OrganizationModule</title>
<polygon fill="none" stroke="black" stroke-dasharray="1,5" points="8,-70 8,-268 658,-268 658,-70 8,-70"/>
</g>
<g id="clust6" class="cluster">
<title>cluster_OrganizationModule_providers</title>
<polygon fill="none" stroke="black" points="284,-78 284,-130 650,-130 650,-78 284,-78"/>
</g>
<g id="clust3" class="cluster">
<title>cluster_OrganizationModule_imports</title>
<polygon fill="none" stroke="black" points="16,-78 16,-130 276,-130 276,-78 16,-78"/>
</g>
<g id="clust4" class="cluster">
<title>cluster_OrganizationModule_exports</title>
<polygon fill="none" stroke="black" points="218,-208 218,-260 368,-260 368,-208 218,-208"/>
</g>
<!-- NotificationModule -->
<g id="node1" class="node">
<title>NotificationModule</title>
<polygon fill="#8dd3c7" stroke="black" points="267.7,-122 264.7,-126 243.7,-126 240.7,-122 140.3,-122 140.3,-86 267.7,-86 267.7,-122"/>
<text text-anchor="middle" x="204" y="-99.8" font-family="Times,serif" font-size="14.00">NotificationModule</text>
</g>
<!-- OrganizationModule -->
<g id="node3" class="node">
<title>OrganizationModule</title>
<polygon fill="#8dd3c7" stroke="black" points="359.13,-187 356.13,-191 335.13,-191 332.13,-187 226.87,-187 226.87,-151 359.13,-151 359.13,-187"/>
<text text-anchor="middle" x="293" y="-164.8" font-family="Times,serif" font-size="14.00">OrganizationModule</text>
</g>
<!-- NotificationModule&#45;&gt;OrganizationModule -->
<g id="edge1" class="edge">
<title>NotificationModule&#45;&gt;OrganizationModule</title>
<path fill="none" stroke="black" d="M247.14,-122.11C247.14,-122.11 247.14,-140.99 247.14,-140.99"/>
<polygon fill="black" stroke="black" points="243.64,-140.99 247.14,-150.99 250.64,-140.99 243.64,-140.99"/>
</g>
<!-- SharedModule -->
<g id="node2" class="node">
<title>SharedModule</title>
<polygon fill="#8dd3c7" stroke="black" points="122.42,-122 119.42,-126 98.42,-126 95.42,-122 23.58,-122 23.58,-86 122.42,-86 122.42,-122"/>
<text text-anchor="middle" x="73" y="-99.8" font-family="Times,serif" font-size="14.00">SharedModule</text>
</g>
<!-- SharedModule&#45;&gt;OrganizationModule -->
<g id="edge2" class="edge">
<title>SharedModule&#45;&gt;OrganizationModule</title>
<path fill="none" stroke="black" d="M73,-122.11C73,-141.34 73,-169 73,-169 73,-169 216.69,-169 216.69,-169"/>
<polygon fill="black" stroke="black" points="216.69,-172.5 226.69,-169 216.69,-165.5 216.69,-172.5"/>
</g>
<!-- OrganizationService  -->
<g id="node4" class="node">
<title>OrganizationService </title>
<polygon fill="#fb8072" stroke="black" points="360.06,-252 225.94,-252 225.94,-216 360.06,-216 360.06,-252"/>
<text text-anchor="middle" x="293" y="-229.8" font-family="Times,serif" font-size="14.00">OrganizationService </text>
</g>
<!-- OrganizationModule&#45;&gt;OrganizationService  -->
<g id="edge3" class="edge">
<title>OrganizationModule&#45;&gt;OrganizationService </title>
<path fill="none" stroke="black" stroke-dasharray="5,2" d="M293,-187.11C293,-187.11 293,-205.99 293,-205.99"/>
<polygon fill="black" stroke="black" points="289.5,-205.99 293,-215.99 296.5,-205.99 289.5,-205.99"/>
</g>
<!-- JwtAuthStrategy -->
<g id="node5" class="node">
<title>JwtAuthStrategy</title>
<ellipse fill="#fdb462" stroke="black" cx="566" cy="-104" rx="75.88" ry="18"/>
<text text-anchor="middle" x="566" y="-99.8" font-family="Times,serif" font-size="14.00">JwtAuthStrategy</text>
</g>
<!-- JwtAuthStrategy&#45;&gt;OrganizationModule -->
<g id="edge4" class="edge">
<title>JwtAuthStrategy&#45;&gt;OrganizationModule</title>
<path fill="none" stroke="black" d="M566,-122.11C566,-141.34 566,-169 566,-169 566,-169 369.43,-169 369.43,-169"/>
<polygon fill="black" stroke="black" points="369.43,-165.5 359.43,-169 369.43,-172.5 369.43,-165.5"/>
</g>
<!-- OrganizationService -->
<g id="node6" class="node">
<title>OrganizationService</title>
<ellipse fill="#fdb462" stroke="black" cx="382" cy="-104" rx="90.31" ry="18"/>
<text text-anchor="middle" x="382" y="-99.8" font-family="Times,serif" font-size="14.00">OrganizationService</text>
</g>
<!-- OrganizationService&#45;&gt;OrganizationModule -->
<g id="edge5" class="edge">
<title>OrganizationService&#45;&gt;OrganizationModule</title>
<path fill="none" stroke="black" d="M325.46,-118.1C325.46,-118.1 325.46,-140.72 325.46,-140.72"/>
<polygon fill="black" stroke="black" points="321.96,-140.72 325.46,-150.72 328.96,-140.72 321.96,-140.72"/>
</g>
</g>
</svg>
