<?xml version="1.0" encoding="UTF-8" standalone="no"?>
<!DOCTYPE svg PUBLIC "-//W3C//DTD SVG 1.1//EN"
 "http://www.w3.org/Graphics/SVG/1.1/DTD/svg11.dtd">
<!-- Generated by graphviz version 2.47.0 (20210316.0004)
 -->
<!-- Title: dependencies Pages: 1 -->
<svg width="2770pt" height="211pt"
 viewBox="0.00 0.00 2770.00 211.00" xmlns="http://www.w3.org/2000/svg" xmlns:xlink="http://www.w3.org/1999/xlink">
<g id="graph0" class="graph" transform="scale(1 1) rotate(0) translate(4 207)">
<title>dependencies</title>
<polygon fill="white" stroke="transparent" points="-4,4 -4,-207 2766,-207 2766,4 -4,4"/>
<text text-anchor="start" x="1360.01" y="-42.4" font-family="Times-12" font-weight="bold" font-size="14.00">Legend</text>
<polygon fill="#ffffb3" stroke="transparent" points="1147,-10 1147,-30 1167,-30 1167,-10 1147,-10"/>
<text text-anchor="start" x="1170.63" y="-15.4" font-family="Times-12" font-size="14.00"> &#160;Declarations</text>
<polygon fill="#8dd3c7" stroke="transparent" points="1260,-10 1260,-30 1280,-30 1280,-10 1260,-10"/>
<text text-anchor="start" x="1283.73" y="-15.4" font-family="Times-12" font-size="14.00"> &#160;Module</text>
<polygon fill="#80b1d3" stroke="transparent" points="1346,-10 1346,-30 1366,-30 1366,-10 1346,-10"/>
<text text-anchor="start" x="1369.78" y="-15.4" font-family="Times-12" font-size="14.00"> &#160;Bootstrap</text>
<polygon fill="#fdb462" stroke="transparent" points="1443,-10 1443,-30 1463,-30 1463,-10 1443,-10"/>
<text text-anchor="start" x="1466.67" y="-15.4" font-family="Times-12" font-size="14.00"> &#160;Providers</text>
<polygon fill="#fb8072" stroke="transparent" points="1539,-10 1539,-30 1559,-30 1559,-10 1539,-10"/>
<text text-anchor="start" x="1562.73" y="-15.4" font-family="Times-12" font-size="14.00"> &#160;Exports</text>
<g id="clust1" class="cluster">
<title>cluster_AppModule</title>
<polygon fill="none" stroke="black" stroke-dasharray="1,5" points="8,-70 8,-195 2754,-195 2754,-70 8,-70"/>
</g>
<g id="clust6" class="cluster">
<title>cluster_AppModule_providers</title>
<polygon fill="none" stroke="black" points="2616,-78 2616,-130 2746,-130 2746,-78 2616,-78"/>
</g>
<g id="clust3" class="cluster">
<title>cluster_AppModule_imports</title>
<polygon fill="none" stroke="black" points="16,-78 16,-130 2608,-130 2608,-78 16,-78"/>
</g>
<!-- AiAssistantModule -->
<g id="node1" class="node">
<title>AiAssistantModule</title>
<polygon fill="#8dd3c7" stroke="black" points="2600.37,-122 2597.37,-126 2576.37,-126 2573.37,-122 2475.63,-122 2475.63,-86 2600.37,-86 2600.37,-122"/>
<text text-anchor="middle" x="2538" y="-99.8" font-family="Times,serif" font-size="14.00">AiAssistantModule</text>
</g>
<!-- AppModule -->
<g id="node21" class="node">
<title>AppModule</title>
<polygon fill="#8dd3c7" stroke="black" points="1367.66,-187 1364.66,-191 1343.66,-191 1340.66,-187 1284.34,-187 1284.34,-151 1367.66,-151 1367.66,-187"/>
<text text-anchor="middle" x="1326" y="-164.8" font-family="Times,serif" font-size="14.00">AppModule</text>
</g>
<!-- AiAssistantModule&#45;&gt;AppModule -->
<g id="edge1" class="edge">
<title>AiAssistantModule&#45;&gt;AppModule</title>
<path fill="none" stroke="black" d="M2538,-122.25C2538,-145.02 2538,-181 2538,-181 2538,-181 1377.72,-181 1377.72,-181"/>
<polygon fill="black" stroke="black" points="1377.72,-177.5 1367.72,-181 1377.72,-184.5 1377.72,-177.5"/>
</g>
<!-- AnalyticsModule -->
<g id="node2" class="node">
<title>AnalyticsModule</title>
<polygon fill="#8dd3c7" stroke="black" points="2457.7,-122 2454.7,-126 2433.7,-126 2430.7,-122 2344.3,-122 2344.3,-86 2457.7,-86 2457.7,-122"/>
<text text-anchor="middle" x="2401" y="-99.8" font-family="Times,serif" font-size="14.00">AnalyticsModule</text>
</g>
<!-- AnalyticsModule&#45;&gt;AppModule -->
<g id="edge2" class="edge">
<title>AnalyticsModule&#45;&gt;AppModule</title>
<path fill="none" stroke="black" d="M2401,-122.29C2401,-144.21 2401,-178 2401,-178 2401,-178 1377.81,-178 1377.81,-178"/>
<polygon fill="black" stroke="black" points="1377.81,-174.5 1367.81,-178 1377.81,-181.5 1377.81,-174.5"/>
</g>
<!-- AuthModule -->
<g id="node3" class="node">
<title>AuthModule</title>
<polygon fill="#8dd3c7" stroke="black" points="2326.55,-122 2323.55,-126 2302.55,-126 2299.55,-122 2239.45,-122 2239.45,-86 2326.55,-86 2326.55,-122"/>
<text text-anchor="middle" x="2283" y="-99.8" font-family="Times,serif" font-size="14.00">AuthModule</text>
</g>
<!-- AuthModule&#45;&gt;AppModule -->
<g id="edge3" class="edge">
<title>AuthModule&#45;&gt;AppModule</title>
<path fill="none" stroke="black" d="M2283,-122.03C2283,-142.77 2283,-174 2283,-174 2283,-174 1377.74,-174 1377.74,-174"/>
<polygon fill="black" stroke="black" points="1377.74,-170.5 1367.74,-174 1377.74,-177.5 1377.74,-170.5"/>
</g>
<!-- BlogModule -->
<g id="node4" class="node">
<title>BlogModule</title>
<polygon fill="#8dd3c7" stroke="black" points="2221.28,-122 2218.28,-126 2197.28,-126 2194.28,-122 2134.72,-122 2134.72,-86 2221.28,-86 2221.28,-122"/>
<text text-anchor="middle" x="2178" y="-99.8" font-family="Times,serif" font-size="14.00">BlogModule</text>
</g>
<!-- BlogModule&#45;&gt;AppModule -->
<g id="edge4" class="edge">
<title>BlogModule&#45;&gt;AppModule</title>
<path fill="none" stroke="black" d="M2178,-122.31C2178,-142.15 2178,-171 2178,-171 2178,-171 1377.67,-171 1377.67,-171"/>
<polygon fill="black" stroke="black" points="1377.67,-167.5 1367.67,-171 1377.67,-174.5 1377.67,-167.5"/>
</g>
<!-- CategoryModule -->
<g id="node5" class="node">
<title>CategoryModule</title>
<polygon fill="#8dd3c7" stroke="black" points="2116.37,-122 2113.37,-126 2092.37,-126 2089.37,-122 2005.63,-122 2005.63,-86 2116.37,-86 2116.37,-122"/>
<text text-anchor="middle" x="2061" y="-99.8" font-family="Times,serif" font-size="14.00">CategoryModule</text>
</g>
<!-- CategoryModule&#45;&gt;AppModule -->
<g id="edge5" class="edge">
<title>CategoryModule&#45;&gt;AppModule</title>
<path fill="none" stroke="black" d="M2061,-122.17C2061,-141.09 2061,-168 2061,-168 2061,-168 1377.89,-168 1377.89,-168"/>
<polygon fill="black" stroke="black" points="1377.89,-164.5 1367.89,-168 1377.89,-171.5 1377.89,-164.5"/>
</g>
<!-- ClimateChampionModule -->
<g id="node6" class="node">
<title>ClimateChampionModule</title>
<polygon fill="#8dd3c7" stroke="black" points="1987.21,-122 1984.21,-126 1963.21,-126 1960.21,-122 1824.79,-122 1824.79,-86 1987.21,-86 1987.21,-122"/>
<text text-anchor="middle" x="1906" y="-99.8" font-family="Times,serif" font-size="14.00">ClimateChampionModule</text>
</g>
<!-- ClimateChampionModule&#45;&gt;AppModule -->
<g id="edge6" class="edge">
<title>ClimateChampionModule&#45;&gt;AppModule</title>
<path fill="none" stroke="black" d="M1906,-122.3C1906,-140.27 1906,-165 1906,-165 1906,-165 1377.71,-165 1377.71,-165"/>
<polygon fill="black" stroke="black" points="1377.71,-161.5 1367.71,-165 1377.71,-168.5 1377.71,-161.5"/>
</g>
<!-- DatabaseModule -->
<g id="node7" class="node">
<title>DatabaseModule</title>
<polygon fill="#8dd3c7" stroke="black" points="1806.35,-122 1803.35,-126 1782.35,-126 1779.35,-122 1695.65,-122 1695.65,-86 1806.35,-86 1806.35,-122"/>
<text text-anchor="middle" x="1751" y="-99.8" font-family="Times,serif" font-size="14.00">DatabaseModule</text>
</g>
<!-- DatabaseModule&#45;&gt;AppModule -->
<g id="edge7" class="edge">
<title>DatabaseModule&#45;&gt;AppModule</title>
<path fill="none" stroke="black" d="M1751,-122.04C1751,-138.73 1751,-161 1751,-161 1751,-161 1377.91,-161 1377.91,-161"/>
<polygon fill="black" stroke="black" points="1377.91,-157.5 1367.91,-161 1377.91,-164.5 1377.91,-157.5"/>
</g>
<!-- EmailSubscriptionModule -->
<g id="node8" class="node">
<title>EmailSubscriptionModule</title>
<polygon fill="#8dd3c7" stroke="black" points="1677.76,-122 1674.76,-126 1653.76,-126 1650.76,-122 1514.24,-122 1514.24,-86 1677.76,-86 1677.76,-122"/>
<text text-anchor="middle" x="1596" y="-99.8" font-family="Times,serif" font-size="14.00">EmailSubscriptionModule</text>
</g>
<!-- EmailSubscriptionModule&#45;&gt;AppModule -->
<g id="edge8" class="edge">
<title>EmailSubscriptionModule&#45;&gt;AppModule</title>
<path fill="none" stroke="black" d="M1596,-122.28C1596,-137.95 1596,-158 1596,-158 1596,-158 1377.89,-158 1377.89,-158"/>
<polygon fill="black" stroke="black" points="1377.89,-154.5 1367.89,-158 1377.89,-161.5 1377.89,-154.5"/>
</g>
<!-- EventsModule -->
<g id="node9" class="node">
<title>EventsModule</title>
<polygon fill="#8dd3c7" stroke="black" points="1495.65,-122 1492.65,-126 1471.65,-126 1468.65,-122 1398.35,-122 1398.35,-86 1495.65,-86 1495.65,-122"/>
<text text-anchor="middle" x="1447" y="-99.8" font-family="Times,serif" font-size="14.00">EventsModule</text>
</g>
<!-- EventsModule&#45;&gt;AppModule -->
<g id="edge9" class="edge">
<title>EventsModule&#45;&gt;AppModule</title>
<path fill="none" stroke="black" d="M1447,-122.12C1447,-136.78 1447,-155 1447,-155 1447,-155 1377.98,-155 1377.98,-155"/>
<polygon fill="black" stroke="black" points="1377.98,-151.5 1367.98,-155 1377.98,-158.5 1377.98,-151.5"/>
</g>
<!-- ImagekitModule -->
<g id="node10" class="node">
<title>ImagekitModule</title>
<polygon fill="#8dd3c7" stroke="black" points="1380.81,-122 1377.81,-126 1356.81,-126 1353.81,-122 1271.19,-122 1271.19,-86 1380.81,-86 1380.81,-122"/>
<text text-anchor="middle" x="1326" y="-99.8" font-family="Times,serif" font-size="14.00">ImagekitModule</text>
</g>
<!-- ImagekitModule&#45;&gt;AppModule -->
<g id="edge10" class="edge">
<title>ImagekitModule&#45;&gt;AppModule</title>
<path fill="none" stroke="black" d="M1326,-122.11C1326,-122.11 1326,-140.99 1326,-140.99"/>
<polygon fill="black" stroke="black" points="1322.5,-140.99 1326,-150.99 1329.5,-140.99 1322.5,-140.99"/>
</g>
<!-- MemberModule -->
<g id="node11" class="node">
<title>MemberModule</title>
<polygon fill="#8dd3c7" stroke="black" points="1253.47,-122 1250.47,-126 1229.47,-126 1226.47,-122 1146.53,-122 1146.53,-86 1253.47,-86 1253.47,-122"/>
<text text-anchor="middle" x="1200" y="-99.8" font-family="Times,serif" font-size="14.00">MemberModule</text>
</g>
<!-- MemberModule&#45;&gt;AppModule -->
<g id="edge11" class="edge">
<title>MemberModule&#45;&gt;AppModule</title>
<path fill="none" stroke="black" d="M1200,-122.12C1200,-136.78 1200,-155 1200,-155 1200,-155 1274.04,-155 1274.04,-155"/>
<polygon fill="black" stroke="black" points="1274.04,-158.5 1284.04,-155 1274.04,-151.5 1274.04,-158.5"/>
</g>
<!-- NewsModule -->
<g id="node12" class="node">
<title>NewsModule</title>
<polygon fill="#8dd3c7" stroke="black" points="1128.92,-122 1125.92,-126 1104.92,-126 1101.92,-122 1037.08,-122 1037.08,-86 1128.92,-86 1128.92,-122"/>
<text text-anchor="middle" x="1083" y="-99.8" font-family="Times,serif" font-size="14.00">NewsModule</text>
</g>
<!-- NewsModule&#45;&gt;AppModule -->
<g id="edge12" class="edge">
<title>NewsModule&#45;&gt;AppModule</title>
<path fill="none" stroke="black" d="M1083,-122.28C1083,-137.95 1083,-158 1083,-158 1083,-158 1274.23,-158 1274.23,-158"/>
<polygon fill="black" stroke="black" points="1274.23,-161.5 1284.23,-158 1274.23,-154.5 1274.23,-161.5"/>
</g>
<!-- NotificationModule -->
<g id="node13" class="node">
<title>NotificationModule</title>
<polygon fill="#8dd3c7" stroke="black" points="1019.7,-122 1016.7,-126 995.7,-126 992.7,-122 892.3,-122 892.3,-86 1019.7,-86 1019.7,-122"/>
<text text-anchor="middle" x="956" y="-99.8" font-family="Times,serif" font-size="14.00">NotificationModule</text>
</g>
<!-- NotificationModule&#45;&gt;AppModule -->
<g id="edge13" class="edge">
<title>NotificationModule&#45;&gt;AppModule</title>
<path fill="none" stroke="black" d="M956,-122.04C956,-138.73 956,-161 956,-161 956,-161 1274.28,-161 1274.28,-161"/>
<polygon fill="black" stroke="black" points="1274.28,-164.5 1284.28,-161 1274.28,-157.5 1274.28,-164.5"/>
</g>
<!-- OpportunityModule -->
<g id="node14" class="node">
<title>OpportunityModule</title>
<polygon fill="#8dd3c7" stroke="black" points="873.99,-122 870.99,-126 849.99,-126 846.99,-122 746.01,-122 746.01,-86 873.99,-86 873.99,-122"/>
<text text-anchor="middle" x="810" y="-99.8" font-family="Times,serif" font-size="14.00">OpportunityModule</text>
</g>
<!-- OpportunityModule&#45;&gt;AppModule -->
<g id="edge14" class="edge">
<title>OpportunityModule&#45;&gt;AppModule</title>
<path fill="none" stroke="black" d="M810,-122.3C810,-140.27 810,-165 810,-165 810,-165 1274.21,-165 1274.21,-165"/>
<polygon fill="black" stroke="black" points="1274.21,-168.5 1284.21,-165 1274.21,-161.5 1274.21,-168.5"/>
</g>
<!-- OrganizationModule -->
<g id="node15" class="node">
<title>OrganizationModule</title>
<polygon fill="#8dd3c7" stroke="black" points="728.13,-122 725.13,-126 704.13,-126 701.13,-122 595.87,-122 595.87,-86 728.13,-86 728.13,-122"/>
<text text-anchor="middle" x="662" y="-99.8" font-family="Times,serif" font-size="14.00">OrganizationModule</text>
</g>
<!-- OrganizationModule&#45;&gt;AppModule -->
<g id="edge15" class="edge">
<title>OrganizationModule&#45;&gt;AppModule</title>
<path fill="none" stroke="black" d="M662,-122.17C662,-141.09 662,-168 662,-168 662,-168 1274.21,-168 1274.21,-168"/>
<polygon fill="black" stroke="black" points="1274.21,-171.5 1284.21,-168 1274.21,-164.5 1274.21,-171.5"/>
</g>
<!-- ProjectModule -->
<g id="node16" class="node">
<title>ProjectModule</title>
<polygon fill="#8dd3c7" stroke="black" points="577.7,-122 574.7,-126 553.7,-126 550.7,-122 478.3,-122 478.3,-86 577.7,-86 577.7,-122"/>
<text text-anchor="middle" x="528" y="-99.8" font-family="Times,serif" font-size="14.00">ProjectModule</text>
</g>
<!-- ProjectModule&#45;&gt;AppModule -->
<g id="edge16" class="edge">
<title>ProjectModule&#45;&gt;AppModule</title>
<path fill="none" stroke="black" d="M528,-122.31C528,-142.15 528,-171 528,-171 528,-171 1274.22,-171 1274.22,-171"/>
<polygon fill="black" stroke="black" points="1274.22,-174.5 1284.22,-171 1274.22,-167.5 1274.22,-174.5"/>
</g>
<!-- ResourceModule -->
<g id="node17" class="node">
<title>ResourceModule</title>
<polygon fill="#8dd3c7" stroke="black" points="460.64,-122 457.64,-126 436.64,-126 433.64,-122 349.36,-122 349.36,-86 460.64,-86 460.64,-122"/>
<text text-anchor="middle" x="405" y="-99.8" font-family="Times,serif" font-size="14.00">ResourceModule</text>
</g>
<!-- ResourceModule&#45;&gt;AppModule -->
<g id="edge17" class="edge">
<title>ResourceModule&#45;&gt;AppModule</title>
<path fill="none" stroke="black" d="M405,-122.03C405,-142.77 405,-174 405,-174 405,-174 1274.34,-174 1274.34,-174"/>
<polygon fill="black" stroke="black" points="1274.34,-177.5 1284.34,-174 1274.34,-170.5 1274.34,-177.5"/>
</g>
<!-- SharedModule -->
<g id="node18" class="node">
<title>SharedModule</title>
<polygon fill="#8dd3c7" stroke="black" points="331.42,-122 328.42,-126 307.42,-126 304.42,-122 232.58,-122 232.58,-86 331.42,-86 331.42,-122"/>
<text text-anchor="middle" x="282" y="-99.8" font-family="Times,serif" font-size="14.00">SharedModule</text>
</g>
<!-- SharedModule&#45;&gt;AppModule -->
<g id="edge18" class="edge">
<title>SharedModule&#45;&gt;AppModule</title>
<path fill="none" stroke="black" d="M282,-122.29C282,-144.21 282,-178 282,-178 282,-178 1274.11,-178 1274.11,-178"/>
<polygon fill="black" stroke="black" points="1274.11,-181.5 1284.11,-178 1274.11,-174.5 1274.11,-181.5"/>
</g>
<!-- TagsModule -->
<g id="node19" class="node">
<title>TagsModule</title>
<polygon fill="#8dd3c7" stroke="black" points="214.26,-122 211.26,-126 190.26,-126 187.26,-122 127.74,-122 127.74,-86 214.26,-86 214.26,-122"/>
<text text-anchor="middle" x="171" y="-99.8" font-family="Times,serif" font-size="14.00">TagsModule</text>
</g>
<!-- TagsModule&#45;&gt;AppModule -->
<g id="edge19" class="edge">
<title>TagsModule&#45;&gt;AppModule</title>
<path fill="none" stroke="black" d="M171,-122.25C171,-145.02 171,-181 171,-181 171,-181 1274.21,-181 1274.21,-181"/>
<polygon fill="black" stroke="black" points="1274.21,-184.5 1284.21,-181 1274.21,-177.5 1274.21,-184.5"/>
</g>
<!-- UserModule -->
<g id="node20" class="node">
<title>UserModule</title>
<polygon fill="#8dd3c7" stroke="black" points="109.98,-122 106.98,-126 85.98,-126 82.98,-122 24.02,-122 24.02,-86 109.98,-86 109.98,-122"/>
<text text-anchor="middle" x="67" y="-99.8" font-family="Times,serif" font-size="14.00">UserModule</text>
</g>
<!-- UserModule&#45;&gt;AppModule -->
<g id="edge20" class="edge">
<title>UserModule&#45;&gt;AppModule</title>
<path fill="none" stroke="black" d="M67,-122.15C67,-145.76 67,-184 67,-184 67,-184 1274.11,-184 1274.11,-184"/>
<polygon fill="black" stroke="black" points="1274.11,-187.5 1284.11,-184 1274.11,-180.5 1274.11,-187.5"/>
</g>
<!-- AppService -->
<g id="node22" class="node">
<title>AppService</title>
<ellipse fill="#fdb462" stroke="black" cx="2681" cy="-104" rx="56.74" ry="18"/>
<text text-anchor="middle" x="2681" y="-99.8" font-family="Times,serif" font-size="14.00">AppService</text>
</g>
<!-- AppService&#45;&gt;AppModule -->
<g id="edge21" class="edge">
<title>AppService&#45;&gt;AppModule</title>
<path fill="none" stroke="black" d="M2681,-122.15C2681,-145.76 2681,-184 2681,-184 2681,-184 1377.66,-184 1377.66,-184"/>
<polygon fill="black" stroke="black" points="1377.66,-180.5 1367.66,-184 1377.66,-187.5 1377.66,-180.5"/>
</g>
</g>
</svg>
