<?xml version="1.0" encoding="UTF-8" standalone="no"?>
<!DOCTYPE svg PUBLIC "-//W3C//DTD SVG 1.1//EN"
 "http://www.w3.org/Graphics/SVG/1.1/DTD/svg11.dtd">
<!-- Generated by graphviz version 2.47.0 (20210316.0004)
 -->
<!-- Title: dependencies Pages: 1 -->
<svg width="504pt" height="211pt"
 viewBox="0.00 0.00 504.00 211.00" xmlns="http://www.w3.org/2000/svg" xmlns:xlink="http://www.w3.org/1999/xlink">
<g id="graph0" class="graph" transform="scale(1 1) rotate(0) translate(4 207)">
<title>dependencies</title>
<polygon fill="white" stroke="transparent" points="-4,4 -4,-207 500,-207 500,4 -4,4"/>
<text text-anchor="start" x="227.01" y="-42.4" font-family="Times-12" font-weight="bold" font-size="14.00">Legend</text>
<polygon fill="#ffffb3" stroke="transparent" points="14,-10 14,-30 34,-30 34,-10 14,-10"/>
<text text-anchor="start" x="37.63" y="-15.4" font-family="Times-12" font-size="14.00"> &#160;Declarations</text>
<polygon fill="#8dd3c7" stroke="transparent" points="127,-10 127,-30 147,-30 147,-10 127,-10"/>
<text text-anchor="start" x="150.73" y="-15.4" font-family="Times-12" font-size="14.00"> &#160;Module</text>
<polygon fill="#80b1d3" stroke="transparent" points="213,-10 213,-30 233,-30 233,-10 213,-10"/>
<text text-anchor="start" x="236.78" y="-15.4" font-family="Times-12" font-size="14.00"> &#160;Bootstrap</text>
<polygon fill="#fdb462" stroke="transparent" points="310,-10 310,-30 330,-30 330,-10 310,-10"/>
<text text-anchor="start" x="333.67" y="-15.4" font-family="Times-12" font-size="14.00"> &#160;Providers</text>
<polygon fill="#fb8072" stroke="transparent" points="406,-10 406,-30 426,-30 426,-10 406,-10"/>
<text text-anchor="start" x="429.73" y="-15.4" font-family="Times-12" font-size="14.00"> &#160;Exports</text>
<g id="clust1" class="cluster">
<title>cluster_ResourceModule</title>
<polygon fill="none" stroke="black" stroke-dasharray="1,5" points="95,-70 95,-195 401,-195 401,-70 95,-70"/>
</g>
<g id="clust6" class="cluster">
<title>cluster_ResourceModule_providers</title>
<polygon fill="none" stroke="black" points="225,-78 225,-130 393,-130 393,-78 225,-78"/>
</g>
<g id="clust3" class="cluster">
<title>cluster_ResourceModule_imports</title>
<polygon fill="none" stroke="black" points="103,-78 103,-130 217,-130 217,-78 103,-78"/>
</g>
<!-- SharedModule -->
<g id="node1" class="node">
<title>SharedModule</title>
<polygon fill="#8dd3c7" stroke="black" points="209.42,-122 206.42,-126 185.42,-126 182.42,-122 110.58,-122 110.58,-86 209.42,-86 209.42,-122"/>
<text text-anchor="middle" x="160" y="-99.8" font-family="Times,serif" font-size="14.00">SharedModule</text>
</g>
<!-- ResourceModule -->
<g id="node2" class="node">
<title>ResourceModule</title>
<polygon fill="#8dd3c7" stroke="black" points="289.64,-187 286.64,-191 265.64,-191 262.64,-187 178.36,-187 178.36,-151 289.64,-151 289.64,-187"/>
<text text-anchor="middle" x="234" y="-164.8" font-family="Times,serif" font-size="14.00">ResourceModule</text>
</g>
<!-- SharedModule&#45;&gt;ResourceModule -->
<g id="edge1" class="edge">
<title>SharedModule&#45;&gt;ResourceModule</title>
<path fill="none" stroke="black" d="M193.7,-122.11C193.7,-122.11 193.7,-140.99 193.7,-140.99"/>
<polygon fill="black" stroke="black" points="190.2,-140.99 193.7,-150.99 197.2,-140.99 190.2,-140.99"/>
</g>
<!-- ResourceService -->
<g id="node3" class="node">
<title>ResourceService</title>
<ellipse fill="#fdb462" stroke="black" cx="309" cy="-104" rx="75.84" ry="18"/>
<text text-anchor="middle" x="309" y="-99.8" font-family="Times,serif" font-size="14.00">ResourceService</text>
</g>
<!-- ResourceService&#45;&gt;ResourceModule -->
<g id="edge2" class="edge">
<title>ResourceService&#45;&gt;ResourceModule</title>
<path fill="none" stroke="black" d="M261.45,-118.1C261.45,-118.1 261.45,-140.72 261.45,-140.72"/>
<polygon fill="black" stroke="black" points="257.95,-140.72 261.45,-150.72 264.95,-140.72 257.95,-140.72"/>
</g>
</g>
</svg>
