<?xml version="1.0" encoding="UTF-8" standalone="no"?>
<!DOCTYPE svg PUBLIC "-//W3C//DTD SVG 1.1//EN"
 "http://www.w3.org/Graphics/SVG/1.1/DTD/svg11.dtd">
<!-- Generated by graphviz version 2.47.0 (20210316.0004)
 -->
<!-- Title: dependencies Pages: 1 -->
<svg width="1387pt" height="211pt"
 viewBox="0.00 0.00 1387.00 211.00" xmlns="http://www.w3.org/2000/svg" xmlns:xlink="http://www.w3.org/1999/xlink">
<g id="graph0" class="graph" transform="scale(1 1) rotate(0) translate(4 207)">
<title>dependencies</title>
<polygon fill="white" stroke="transparent" points="-4,4 -4,-207 1383,-207 1383,4 -4,4"/>
<text text-anchor="start" x="668.51" y="-42.4" font-family="Times-12" font-weight="bold" font-size="14.00">Legend</text>
<polygon fill="#ffffb3" stroke="transparent" points="455.5,-10 455.5,-30 475.5,-30 475.5,-10 455.5,-10"/>
<text text-anchor="start" x="479.13" y="-15.4" font-family="Times-12" font-size="14.00"> &#160;Declarations</text>
<polygon fill="#8dd3c7" stroke="transparent" points="568.5,-10 568.5,-30 588.5,-30 588.5,-10 568.5,-10"/>
<text text-anchor="start" x="592.23" y="-15.4" font-family="Times-12" font-size="14.00"> &#160;Module</text>
<polygon fill="#80b1d3" stroke="transparent" points="654.5,-10 654.5,-30 674.5,-30 674.5,-10 654.5,-10"/>
<text text-anchor="start" x="678.28" y="-15.4" font-family="Times-12" font-size="14.00"> &#160;Bootstrap</text>
<polygon fill="#fdb462" stroke="transparent" points="751.5,-10 751.5,-30 771.5,-30 771.5,-10 751.5,-10"/>
<text text-anchor="start" x="775.17" y="-15.4" font-family="Times-12" font-size="14.00"> &#160;Providers</text>
<polygon fill="#fb8072" stroke="transparent" points="847.5,-10 847.5,-30 867.5,-30 867.5,-10 847.5,-10"/>
<text text-anchor="start" x="871.23" y="-15.4" font-family="Times-12" font-size="14.00"> &#160;Exports</text>
<g id="clust1" class="cluster">
<title>cluster_AppModule</title>
<polygon fill="none" stroke="black" stroke-dasharray="1,5" points="8,-70 8,-195 1371,-195 1371,-70 8,-70"/>
</g>
<g id="clust6" class="cluster">
<title>cluster_AppModule_providers</title>
<polygon fill="none" stroke="black" points="1233,-78 1233,-130 1363,-130 1363,-78 1233,-78"/>
</g>
<g id="clust3" class="cluster">
<title>cluster_AppModule_imports</title>
<polygon fill="none" stroke="black" points="16,-78 16,-130 1225,-130 1225,-78 16,-78"/>
</g>
<!-- AnalyticsModule -->
<g id="node1" class="node">
<title>AnalyticsModule</title>
<polygon fill="#8dd3c7" stroke="black" points="1216.7,-122 1213.7,-126 1192.7,-126 1189.7,-122 1103.3,-122 1103.3,-86 1216.7,-86 1216.7,-122"/>
<text text-anchor="middle" x="1160" y="-99.8" font-family="Times,serif" font-size="14.00">AnalyticsModule</text>
</g>
<!-- AppModule -->
<g id="node11" class="node">
<title>AppModule</title>
<polygon fill="#8dd3c7" stroke="black" points="733.66,-187 730.66,-191 709.66,-191 706.66,-187 650.34,-187 650.34,-151 733.66,-151 733.66,-187"/>
<text text-anchor="middle" x="692" y="-164.8" font-family="Times,serif" font-size="14.00">AppModule</text>
</g>
<!-- AnalyticsModule&#45;&gt;AppModule -->
<g id="edge1" class="edge">
<title>AnalyticsModule&#45;&gt;AppModule</title>
<path fill="none" stroke="black" d="M1160,-122.28C1160,-143.32 1160,-175 1160,-175 1160,-175 743.94,-175 743.94,-175"/>
<polygon fill="black" stroke="black" points="743.94,-171.5 733.94,-175 743.94,-178.5 743.94,-171.5"/>
</g>
<!-- AuthModule -->
<g id="node2" class="node">
<title>AuthModule</title>
<polygon fill="#8dd3c7" stroke="black" points="1085.55,-122 1082.55,-126 1061.55,-126 1058.55,-122 998.45,-122 998.45,-86 1085.55,-86 1085.55,-122"/>
<text text-anchor="middle" x="1042" y="-99.8" font-family="Times,serif" font-size="14.00">AuthModule</text>
</g>
<!-- AuthModule&#45;&gt;AppModule -->
<g id="edge2" class="edge">
<title>AuthModule&#45;&gt;AppModule</title>
<path fill="none" stroke="black" d="M1042,-122.11C1042,-141.34 1042,-169 1042,-169 1042,-169 743.87,-169 743.87,-169"/>
<polygon fill="black" stroke="black" points="743.87,-165.5 733.87,-169 743.87,-172.5 743.87,-165.5"/>
</g>
<!-- EventsModule -->
<g id="node3" class="node">
<title>EventsModule</title>
<polygon fill="#8dd3c7" stroke="black" points="979.65,-122 976.65,-126 955.65,-126 952.65,-122 882.35,-122 882.35,-86 979.65,-86 979.65,-122"/>
<text text-anchor="middle" x="931" y="-99.8" font-family="Times,serif" font-size="14.00">EventsModule</text>
</g>
<!-- EventsModule&#45;&gt;AppModule -->
<g id="edge3" class="edge">
<title>EventsModule&#45;&gt;AppModule</title>
<path fill="none" stroke="black" d="M931,-122.02C931,-139.37 931,-163 931,-163 931,-163 743.9,-163 743.9,-163"/>
<polygon fill="black" stroke="black" points="743.9,-159.5 733.9,-163 743.9,-166.5 743.9,-159.5"/>
</g>
<!-- ImagekitModule -->
<g id="node4" class="node">
<title>ImagekitModule</title>
<polygon fill="#8dd3c7" stroke="black" points="864.81,-122 861.81,-126 840.81,-126 837.81,-122 755.19,-122 755.19,-86 864.81,-86 864.81,-122"/>
<text text-anchor="middle" x="810" y="-99.8" font-family="Times,serif" font-size="14.00">ImagekitModule</text>
</g>
<!-- ImagekitModule&#45;&gt;AppModule -->
<g id="edge4" class="edge">
<title>ImagekitModule&#45;&gt;AppModule</title>
<path fill="none" stroke="black" d="M810,-122.24C810,-137.57 810,-157 810,-157 810,-157 743.93,-157 743.93,-157"/>
<polygon fill="black" stroke="black" points="743.93,-153.5 733.93,-157 743.93,-160.5 743.93,-153.5"/>
</g>
<!-- NewsModule -->
<g id="node5" class="node">
<title>NewsModule</title>
<polygon fill="#8dd3c7" stroke="black" points="737.92,-122 734.92,-126 713.92,-126 710.92,-122 646.08,-122 646.08,-86 737.92,-86 737.92,-122"/>
<text text-anchor="middle" x="692" y="-99.8" font-family="Times,serif" font-size="14.00">NewsModule</text>
</g>
<!-- NewsModule&#45;&gt;AppModule -->
<g id="edge5" class="edge">
<title>NewsModule&#45;&gt;AppModule</title>
<path fill="none" stroke="black" d="M692,-122.11C692,-122.11 692,-140.99 692,-140.99"/>
<polygon fill="black" stroke="black" points="688.5,-140.99 692,-150.99 695.5,-140.99 688.5,-140.99"/>
</g>
<!-- OpportunityModule -->
<g id="node6" class="node">
<title>OpportunityModule</title>
<polygon fill="#8dd3c7" stroke="black" points="627.99,-122 624.99,-126 603.99,-126 600.99,-122 500.01,-122 500.01,-86 627.99,-86 627.99,-122"/>
<text text-anchor="middle" x="564" y="-99.8" font-family="Times,serif" font-size="14.00">OpportunityModule</text>
</g>
<!-- OpportunityModule&#45;&gt;AppModule -->
<g id="edge6" class="edge">
<title>OpportunityModule&#45;&gt;AppModule</title>
<path fill="none" stroke="black" d="M564,-122.24C564,-137.57 564,-157 564,-157 564,-157 640.09,-157 640.09,-157"/>
<polygon fill="black" stroke="black" points="640.09,-160.5 650.09,-157 640.09,-153.5 640.09,-160.5"/>
</g>
<!-- OrganizationModule -->
<g id="node7" class="node">
<title>OrganizationModule</title>
<polygon fill="#8dd3c7" stroke="black" points="482.13,-122 479.13,-126 458.13,-126 455.13,-122 349.87,-122 349.87,-86 482.13,-86 482.13,-122"/>
<text text-anchor="middle" x="416" y="-99.8" font-family="Times,serif" font-size="14.00">OrganizationModule</text>
</g>
<!-- OrganizationModule&#45;&gt;AppModule -->
<g id="edge7" class="edge">
<title>OrganizationModule&#45;&gt;AppModule</title>
<path fill="none" stroke="black" d="M416,-122.02C416,-139.37 416,-163 416,-163 416,-163 640.08,-163 640.08,-163"/>
<polygon fill="black" stroke="black" points="640.08,-166.5 650.08,-163 640.08,-159.5 640.08,-166.5"/>
</g>
<!-- SharedModule -->
<g id="node8" class="node">
<title>SharedModule</title>
<polygon fill="#8dd3c7" stroke="black" points="331.42,-122 328.42,-126 307.42,-126 304.42,-122 232.58,-122 232.58,-86 331.42,-86 331.42,-122"/>
<text text-anchor="middle" x="282" y="-99.8" font-family="Times,serif" font-size="14.00">SharedModule</text>
</g>
<!-- SharedModule&#45;&gt;AppModule -->
<g id="edge8" class="edge">
<title>SharedModule&#45;&gt;AppModule</title>
<path fill="none" stroke="black" d="M282,-122.11C282,-141.34 282,-169 282,-169 282,-169 640.05,-169 640.05,-169"/>
<polygon fill="black" stroke="black" points="640.05,-172.5 650.05,-169 640.05,-165.5 640.05,-172.5"/>
</g>
<!-- TagsModule -->
<g id="node9" class="node">
<title>TagsModule</title>
<polygon fill="#8dd3c7" stroke="black" points="214.26,-122 211.26,-126 190.26,-126 187.26,-122 127.74,-122 127.74,-86 214.26,-86 214.26,-122"/>
<text text-anchor="middle" x="171" y="-99.8" font-family="Times,serif" font-size="14.00">TagsModule</text>
</g>
<!-- TagsModule&#45;&gt;AppModule -->
<g id="edge9" class="edge">
<title>TagsModule&#45;&gt;AppModule</title>
<path fill="none" stroke="black" d="M171,-122.28C171,-143.32 171,-175 171,-175 171,-175 640.25,-175 640.25,-175"/>
<polygon fill="black" stroke="black" points="640.25,-178.5 650.25,-175 640.25,-171.5 640.25,-178.5"/>
</g>
<!-- UserModule -->
<g id="node10" class="node">
<title>UserModule</title>
<polygon fill="#8dd3c7" stroke="black" points="109.98,-122 106.98,-126 85.98,-126 82.98,-122 24.02,-122 24.02,-86 109.98,-86 109.98,-122"/>
<text text-anchor="middle" x="67" y="-99.8" font-family="Times,serif" font-size="14.00">UserModule</text>
</g>
<!-- UserModule&#45;&gt;AppModule -->
<g id="edge10" class="edge">
<title>UserModule&#45;&gt;AppModule</title>
<path fill="none" stroke="black" d="M67,-122.09C67,-145.13 67,-182 67,-182 67,-182 640.02,-182 640.02,-182"/>
<polygon fill="black" stroke="black" points="640.02,-185.5 650.02,-182 640.02,-178.5 640.02,-185.5"/>
</g>
<!-- AppService -->
<g id="node12" class="node">
<title>AppService</title>
<ellipse fill="#fdb462" stroke="black" cx="1298" cy="-104" rx="56.74" ry="18"/>
<text text-anchor="middle" x="1298" y="-99.8" font-family="Times,serif" font-size="14.00">AppService</text>
</g>
<!-- AppService&#45;&gt;AppModule -->
<g id="edge11" class="edge">
<title>AppService&#45;&gt;AppModule</title>
<path fill="none" stroke="black" d="M1298,-122.09C1298,-145.13 1298,-182 1298,-182 1298,-182 744.13,-182 744.13,-182"/>
<polygon fill="black" stroke="black" points="744.13,-178.5 734.13,-182 744.13,-185.5 744.13,-178.5"/>
</g>
</g>
</svg>
