<?xml version="1.0" encoding="UTF-8" standalone="no"?>
<!DOCTYPE svg PUBLIC "-//W3C//DTD SVG 1.1//EN"
 "http://www.w3.org/Graphics/SVG/1.1/DTD/svg11.dtd">
<!-- Generated by graphviz version 2.47.0 (20210316.0004)
 -->
<!-- Title: dependencies Pages: 1 -->
<svg width="504pt" height="284pt"
 viewBox="0.00 0.00 504.00 284.00" xmlns="http://www.w3.org/2000/svg" xmlns:xlink="http://www.w3.org/1999/xlink">
<g id="graph0" class="graph" transform="scale(1 1) rotate(0) translate(4 280)">
<title>dependencies</title>
<polygon fill="white" stroke="transparent" points="-4,4 -4,-280 500,-280 500,4 -4,4"/>
<text text-anchor="start" x="227.01" y="-42.4" font-family="Times-12" font-weight="bold" font-size="14.00">Legend</text>
<polygon fill="#ffffb3" stroke="transparent" points="14,-10 14,-30 34,-30 34,-10 14,-10"/>
<text text-anchor="start" x="37.63" y="-15.4" font-family="Times-12" font-size="14.00"> &#160;Declarations</text>
<polygon fill="#8dd3c7" stroke="transparent" points="127,-10 127,-30 147,-30 147,-10 127,-10"/>
<text text-anchor="start" x="150.73" y="-15.4" font-family="Times-12" font-size="14.00"> &#160;Module</text>
<polygon fill="#80b1d3" stroke="transparent" points="213,-10 213,-30 233,-30 233,-10 213,-10"/>
<text text-anchor="start" x="236.78" y="-15.4" font-family="Times-12" font-size="14.00"> &#160;Bootstrap</text>
<polygon fill="#fdb462" stroke="transparent" points="310,-10 310,-30 330,-30 330,-10 310,-10"/>
<text text-anchor="start" x="333.67" y="-15.4" font-family="Times-12" font-size="14.00"> &#160;Providers</text>
<polygon fill="#fb8072" stroke="transparent" points="406,-10 406,-30 426,-30 426,-10 406,-10"/>
<text text-anchor="start" x="429.73" y="-15.4" font-family="Times-12" font-size="14.00"> &#160;Exports</text>
<g id="clust1" class="cluster">
<title>cluster_AnalyticsModule</title>
<polygon fill="none" stroke="black" stroke-dasharray="1,5" points="94,-70 94,-268 402,-268 402,-70 94,-70"/>
</g>
<g id="clust6" class="cluster">
<title>cluster_AnalyticsModule_providers</title>
<polygon fill="none" stroke="black" points="224,-78 224,-130 394,-130 394,-78 224,-78"/>
</g>
<g id="clust4" class="cluster">
<title>cluster_AnalyticsModule_exports</title>
<polygon fill="none" stroke="black" points="172,-208 172,-260 304,-260 304,-208 172,-208"/>
</g>
<g id="clust3" class="cluster">
<title>cluster_AnalyticsModule_imports</title>
<polygon fill="none" stroke="black" points="102,-78 102,-130 216,-130 216,-78 102,-78"/>
</g>
<!-- SharedModule -->
<g id="node1" class="node">
<title>SharedModule</title>
<polygon fill="#8dd3c7" stroke="black" points="208.42,-122 205.42,-126 184.42,-126 181.42,-122 109.58,-122 109.58,-86 208.42,-86 208.42,-122"/>
<text text-anchor="middle" x="159" y="-99.8" font-family="Times,serif" font-size="14.00">SharedModule</text>
</g>
<!-- AnalyticsModule -->
<g id="node2" class="node">
<title>AnalyticsModule</title>
<polygon fill="#8dd3c7" stroke="black" points="294.7,-187 291.7,-191 270.7,-191 267.7,-187 181.3,-187 181.3,-151 294.7,-151 294.7,-187"/>
<text text-anchor="middle" x="238" y="-164.8" font-family="Times,serif" font-size="14.00">AnalyticsModule</text>
</g>
<!-- SharedModule&#45;&gt;AnalyticsModule -->
<g id="edge1" class="edge">
<title>SharedModule&#45;&gt;AnalyticsModule</title>
<path fill="none" stroke="black" d="M194.81,-122.11C194.81,-122.11 194.81,-140.99 194.81,-140.99"/>
<polygon fill="black" stroke="black" points="191.31,-140.99 194.81,-150.99 198.31,-140.99 191.31,-140.99"/>
</g>
<!-- AnalyticsService  -->
<g id="node3" class="node">
<title>AnalyticsService </title>
<polygon fill="#fb8072" stroke="black" points="295.63,-252 180.37,-252 180.37,-216 295.63,-216 295.63,-252"/>
<text text-anchor="middle" x="238" y="-229.8" font-family="Times,serif" font-size="14.00">AnalyticsService </text>
</g>
<!-- AnalyticsModule&#45;&gt;AnalyticsService  -->
<g id="edge2" class="edge">
<title>AnalyticsModule&#45;&gt;AnalyticsService </title>
<path fill="none" stroke="black" stroke-dasharray="5,2" d="M238,-187.11C238,-187.11 238,-205.99 238,-205.99"/>
<polygon fill="black" stroke="black" points="234.5,-205.99 238,-215.99 241.5,-205.99 234.5,-205.99"/>
</g>
<!-- AnalyticsService -->
<g id="node4" class="node">
<title>AnalyticsService</title>
<ellipse fill="#fdb462" stroke="black" cx="309" cy="-104" rx="77" ry="18"/>
<text text-anchor="middle" x="309" y="-99.8" font-family="Times,serif" font-size="14.00">AnalyticsService</text>
</g>
<!-- AnalyticsService&#45;&gt;AnalyticsModule -->
<g id="edge3" class="edge">
<title>AnalyticsService&#45;&gt;AnalyticsModule</title>
<path fill="none" stroke="black" d="M263.3,-118.75C263.3,-118.75 263.3,-140.59 263.3,-140.59"/>
<polygon fill="black" stroke="black" points="259.8,-140.59 263.3,-150.59 266.8,-140.59 259.8,-140.59"/>
</g>
</g>
</svg>
