<?xml version="1.0" encoding="UTF-8" standalone="no"?>
<!DOCTYPE svg PUBLIC "-//W3C//DTD SVG 1.1//EN"
 "http://www.w3.org/Graphics/SVG/1.1/DTD/svg11.dtd">
<!-- Generated by graphviz version 2.47.0 (20210316.0004)
 -->
<!-- Title: dependencies Pages: 1 -->
<svg width="504pt" height="284pt"
 viewBox="0.00 0.00 504.00 284.00" xmlns="http://www.w3.org/2000/svg" xmlns:xlink="http://www.w3.org/1999/xlink">
<g id="graph0" class="graph" transform="scale(1 1) rotate(0) translate(4 280)">
<title>dependencies</title>
<polygon fill="white" stroke="transparent" points="-4,4 -4,-280 500,-280 500,4 -4,4"/>
<text text-anchor="start" x="227.01" y="-42.4" font-family="Times-12" font-weight="bold" font-size="14.00">Legend</text>
<polygon fill="#ffffb3" stroke="transparent" points="14,-10 14,-30 34,-30 34,-10 14,-10"/>
<text text-anchor="start" x="37.63" y="-15.4" font-family="Times-12" font-size="14.00"> &#160;Declarations</text>
<polygon fill="#8dd3c7" stroke="transparent" points="127,-10 127,-30 147,-30 147,-10 127,-10"/>
<text text-anchor="start" x="150.73" y="-15.4" font-family="Times-12" font-size="14.00"> &#160;Module</text>
<polygon fill="#80b1d3" stroke="transparent" points="213,-10 213,-30 233,-30 233,-10 213,-10"/>
<text text-anchor="start" x="236.78" y="-15.4" font-family="Times-12" font-size="14.00"> &#160;Bootstrap</text>
<polygon fill="#fdb462" stroke="transparent" points="310,-10 310,-30 330,-30 330,-10 310,-10"/>
<text text-anchor="start" x="333.67" y="-15.4" font-family="Times-12" font-size="14.00"> &#160;Providers</text>
<polygon fill="#fb8072" stroke="transparent" points="406,-10 406,-30 426,-30 426,-10 406,-10"/>
<text text-anchor="start" x="429.73" y="-15.4" font-family="Times-12" font-size="14.00"> &#160;Exports</text>
<g id="clust1" class="cluster">
<title>cluster_BlogModule</title>
<polygon fill="none" stroke="black" stroke-dasharray="1,5" points="39,-70 39,-268 457,-268 457,-70 39,-70"/>
</g>
<g id="clust6" class="cluster">
<title>cluster_BlogModule_providers</title>
<polygon fill="none" stroke="black" points="315,-78 315,-130 449,-130 449,-78 315,-78"/>
</g>
<g id="clust4" class="cluster">
<title>cluster_BlogModule_exports</title>
<polygon fill="none" stroke="black" points="183,-208 183,-260 287,-260 287,-208 183,-208"/>
</g>
<g id="clust3" class="cluster">
<title>cluster_BlogModule_imports</title>
<polygon fill="none" stroke="black" points="47,-78 47,-130 307,-130 307,-78 47,-78"/>
</g>
<!-- NotificationModule -->
<g id="node1" class="node">
<title>NotificationModule</title>
<polygon fill="#8dd3c7" stroke="black" points="298.7,-122 295.7,-126 274.7,-126 271.7,-122 171.3,-122 171.3,-86 298.7,-86 298.7,-122"/>
<text text-anchor="middle" x="235" y="-99.8" font-family="Times,serif" font-size="14.00">NotificationModule</text>
</g>
<!-- BlogModule -->
<g id="node3" class="node">
<title>BlogModule</title>
<polygon fill="#8dd3c7" stroke="black" points="278.28,-187 275.28,-191 254.28,-191 251.28,-187 191.72,-187 191.72,-151 278.28,-151 278.28,-187"/>
<text text-anchor="middle" x="235" y="-164.8" font-family="Times,serif" font-size="14.00">BlogModule</text>
</g>
<!-- NotificationModule&#45;&gt;BlogModule -->
<g id="edge1" class="edge">
<title>NotificationModule&#45;&gt;BlogModule</title>
<path fill="none" stroke="black" d="M235,-122.11C235,-122.11 235,-140.99 235,-140.99"/>
<polygon fill="black" stroke="black" points="231.5,-140.99 235,-150.99 238.5,-140.99 231.5,-140.99"/>
</g>
<!-- SharedModule -->
<g id="node2" class="node">
<title>SharedModule</title>
<polygon fill="#8dd3c7" stroke="black" points="153.42,-122 150.42,-126 129.42,-126 126.42,-122 54.58,-122 54.58,-86 153.42,-86 153.42,-122"/>
<text text-anchor="middle" x="104" y="-99.8" font-family="Times,serif" font-size="14.00">SharedModule</text>
</g>
<!-- SharedModule&#45;&gt;BlogModule -->
<g id="edge2" class="edge">
<title>SharedModule&#45;&gt;BlogModule</title>
<path fill="none" stroke="black" d="M104,-122.11C104,-141.34 104,-169 104,-169 104,-169 181.38,-169 181.38,-169"/>
<polygon fill="black" stroke="black" points="181.38,-172.5 191.38,-169 181.38,-165.5 181.38,-172.5"/>
</g>
<!-- BlogService  -->
<g id="node4" class="node">
<title>BlogService </title>
<polygon fill="#fb8072" stroke="black" points="279.21,-252 190.79,-252 190.79,-216 279.21,-216 279.21,-252"/>
<text text-anchor="middle" x="235" y="-229.8" font-family="Times,serif" font-size="14.00">BlogService </text>
</g>
<!-- BlogModule&#45;&gt;BlogService  -->
<g id="edge3" class="edge">
<title>BlogModule&#45;&gt;BlogService </title>
<path fill="none" stroke="black" stroke-dasharray="5,2" d="M235,-187.11C235,-187.11 235,-205.99 235,-205.99"/>
<polygon fill="black" stroke="black" points="231.5,-205.99 235,-215.99 238.5,-205.99 231.5,-205.99"/>
</g>
<!-- BlogService -->
<g id="node5" class="node">
<title>BlogService</title>
<ellipse fill="#fdb462" stroke="black" cx="382" cy="-104" rx="58.55" ry="18"/>
<text text-anchor="middle" x="382" y="-99.8" font-family="Times,serif" font-size="14.00">BlogService</text>
</g>
<!-- BlogService&#45;&gt;BlogModule -->
<g id="edge4" class="edge">
<title>BlogService&#45;&gt;BlogModule</title>
<path fill="none" stroke="black" d="M382,-122.11C382,-141.34 382,-169 382,-169 382,-169 288.31,-169 288.31,-169"/>
<polygon fill="black" stroke="black" points="288.31,-165.5 278.31,-169 288.31,-172.5 288.31,-165.5"/>
</g>
</g>
</svg>
