<?xml version="1.0" encoding="UTF-8" standalone="no"?>
<!DOCTYPE svg PUBLIC "-//W3C//DTD SVG 1.1//EN"
 "http://www.w3.org/Graphics/SVG/1.1/DTD/svg11.dtd">
<!-- Generated by graphviz version 2.47.0 (20210316.0004)
 -->
<!-- Title: dependencies Pages: 1 -->
<svg width="504pt" height="211pt"
 viewBox="0.00 0.00 504.00 211.00" xmlns="http://www.w3.org/2000/svg" xmlns:xlink="http://www.w3.org/1999/xlink">
<g id="graph0" class="graph" transform="scale(1 1) rotate(0) translate(4 207)">
<title>dependencies</title>
<polygon fill="white" stroke="transparent" points="-4,4 -4,-207 500,-207 500,4 -4,4"/>
<text text-anchor="start" x="227.01" y="-42.4" font-family="Times-12" font-weight="bold" font-size="14.00">Legend</text>
<polygon fill="#ffffb3" stroke="transparent" points="14,-10 14,-30 34,-30 34,-10 14,-10"/>
<text text-anchor="start" x="37.63" y="-15.4" font-family="Times-12" font-size="14.00"> &#160;Declarations</text>
<polygon fill="#8dd3c7" stroke="transparent" points="127,-10 127,-30 147,-30 147,-10 127,-10"/>
<text text-anchor="start" x="150.73" y="-15.4" font-family="Times-12" font-size="14.00"> &#160;Module</text>
<polygon fill="#80b1d3" stroke="transparent" points="213,-10 213,-30 233,-30 233,-10 213,-10"/>
<text text-anchor="start" x="236.78" y="-15.4" font-family="Times-12" font-size="14.00"> &#160;Bootstrap</text>
<polygon fill="#fdb462" stroke="transparent" points="310,-10 310,-30 330,-30 330,-10 310,-10"/>
<text text-anchor="start" x="333.67" y="-15.4" font-family="Times-12" font-size="14.00"> &#160;Providers</text>
<polygon fill="#fb8072" stroke="transparent" points="406,-10 406,-30 426,-30 426,-10 406,-10"/>
<text text-anchor="start" x="429.73" y="-15.4" font-family="Times-12" font-size="14.00"> &#160;Exports</text>
<g id="clust1" class="cluster">
<title>cluster_EmailSubscriptionModule</title>
<polygon fill="none" stroke="black" stroke-dasharray="1,5" points="59,-70 59,-195 437,-195 437,-70 59,-70"/>
</g>
<g id="clust6" class="cluster">
<title>cluster_EmailSubscriptionModule_providers</title>
<polygon fill="none" stroke="black" points="189,-78 189,-130 429,-130 429,-78 189,-78"/>
</g>
<g id="clust3" class="cluster">
<title>cluster_EmailSubscriptionModule_imports</title>
<polygon fill="none" stroke="black" points="67,-78 67,-130 181,-130 181,-78 67,-78"/>
</g>
<!-- SharedModule -->
<g id="node1" class="node">
<title>SharedModule</title>
<polygon fill="#8dd3c7" stroke="black" points="173.42,-122 170.42,-126 149.42,-126 146.42,-122 74.58,-122 74.58,-86 173.42,-86 173.42,-122"/>
<text text-anchor="middle" x="124" y="-99.8" font-family="Times,serif" font-size="14.00">SharedModule</text>
</g>
<!-- EmailSubscriptionModule -->
<g id="node2" class="node">
<title>EmailSubscriptionModule</title>
<polygon fill="#8dd3c7" stroke="black" points="310.76,-187 307.76,-191 286.76,-191 283.76,-187 147.24,-187 147.24,-151 310.76,-151 310.76,-187"/>
<text text-anchor="middle" x="229" y="-164.8" font-family="Times,serif" font-size="14.00">EmailSubscriptionModule</text>
</g>
<!-- SharedModule&#45;&gt;EmailSubscriptionModule -->
<g id="edge1" class="edge">
<title>SharedModule&#45;&gt;EmailSubscriptionModule</title>
<path fill="none" stroke="black" d="M160.16,-122.11C160.16,-122.11 160.16,-140.99 160.16,-140.99"/>
<polygon fill="black" stroke="black" points="156.66,-140.99 160.16,-150.99 163.66,-140.99 156.66,-140.99"/>
</g>
<!-- EmailSubscriptionService -->
<g id="node3" class="node">
<title>EmailSubscriptionService</title>
<ellipse fill="#fdb462" stroke="black" cx="309" cy="-104" rx="111.75" ry="18"/>
<text text-anchor="middle" x="309" y="-99.8" font-family="Times,serif" font-size="14.00">EmailSubscriptionService</text>
</g>
<!-- EmailSubscriptionService&#45;&gt;EmailSubscriptionModule -->
<g id="edge2" class="edge">
<title>EmailSubscriptionService&#45;&gt;EmailSubscriptionModule</title>
<path fill="none" stroke="black" d="M254,-119.73C254,-119.73 254,-140.65 254,-140.65"/>
<polygon fill="black" stroke="black" points="250.5,-140.65 254,-150.65 257.5,-140.65 250.5,-140.65"/>
</g>
</g>
</svg>
