<?xml version="1.0" encoding="UTF-8" standalone="no"?>
<!DOCTYPE svg PUBLIC "-//W3C//DTD SVG 1.1//EN"
 "http://www.w3.org/Graphics/SVG/1.1/DTD/svg11.dtd">
<!-- Generated by graphviz version 2.47.0 (20210316.0004)
 -->
<!-- Title: dependencies Pages: 1 -->
<svg width="2977pt" height="493pt"
 viewBox="0.00 0.00 2977.00 493.00" xmlns="http://www.w3.org/2000/svg" xmlns:xlink="http://www.w3.org/1999/xlink">
<g id="graph0" class="graph" transform="scale(1 1) rotate(0) translate(4 489)">
<title>dependencies</title>
<polygon fill="white" stroke="transparent" points="-4,4 -4,-489 2973,-489 2973,4 -4,4"/>
<text text-anchor="start" x="1463.51" y="-42.4" font-family="Times-12" font-weight="bold" font-size="14.00">Legend</text>
<polygon fill="#ffffb3" stroke="transparent" points="1250.5,-10 1250.5,-30 1270.5,-30 1270.5,-10 1250.5,-10"/>
<text text-anchor="start" x="1274.13" y="-15.4" font-family="Times-12" font-size="14.00"> &#160;Declarations</text>
<polygon fill="#8dd3c7" stroke="transparent" points="1363.5,-10 1363.5,-30 1383.5,-30 1383.5,-10 1363.5,-10"/>
<text text-anchor="start" x="1387.23" y="-15.4" font-family="Times-12" font-size="14.00"> &#160;Module</text>
<polygon fill="#80b1d3" stroke="transparent" points="1449.5,-10 1449.5,-30 1469.5,-30 1469.5,-10 1449.5,-10"/>
<text text-anchor="start" x="1473.28" y="-15.4" font-family="Times-12" font-size="14.00"> &#160;Bootstrap</text>
<polygon fill="#fdb462" stroke="transparent" points="1546.5,-10 1546.5,-30 1566.5,-30 1566.5,-10 1546.5,-10"/>
<text text-anchor="start" x="1570.17" y="-15.4" font-family="Times-12" font-size="14.00"> &#160;Providers</text>
<polygon fill="#fb8072" stroke="transparent" points="1642.5,-10 1642.5,-30 1662.5,-30 1662.5,-10 1642.5,-10"/>
<text text-anchor="start" x="1666.23" y="-15.4" font-family="Times-12" font-size="14.00"> &#160;Exports</text>
<g id="clust1" class="cluster">
<title>cluster_AnalyticsModule</title>
<polygon fill="none" stroke="black" stroke-dasharray="1,5" points="452,-200 452,-420 760,-420 760,-200 452,-200"/>
</g>
<g id="clust3" class="cluster">
<title>cluster_AnalyticsModule_imports</title>
<polygon fill="none" stroke="black" points="638,-208 638,-260 752,-260 752,-208 638,-208"/>
</g>
<g id="clust4" class="cluster">
<title>cluster_AnalyticsModule_exports</title>
<polygon fill="none" stroke="black" points="598,-360 598,-412 730,-412 730,-360 598,-360"/>
</g>
<g id="clust6" class="cluster">
<title>cluster_AnalyticsModule_providers</title>
<polygon fill="none" stroke="black" points="460,-208 460,-260 630,-260 630,-208 460,-208"/>
</g>
<g id="clust7" class="cluster">
<title>cluster_AppLoggerModule</title>
<polygon fill="none" stroke="black" stroke-dasharray="1,5" points="768,-70 768,-268 912,-268 912,-70 768,-70"/>
</g>
<g id="clust10" class="cluster">
<title>cluster_AppLoggerModule_exports</title>
<polygon fill="none" stroke="black" points="789,-208 789,-260 889,-260 889,-208 789,-208"/>
</g>
<g id="clust12" class="cluster">
<title>cluster_AppLoggerModule_providers</title>
<polygon fill="none" stroke="black" points="776,-78 776,-130 904,-130 904,-78 776,-78"/>
</g>
<g id="clust13" class="cluster">
<title>cluster_AppModule</title>
<polygon fill="none" stroke="black" stroke-dasharray="1,5" points="1416,-276 1416,-477 2427,-477 2427,-276 1416,-276"/>
</g>
<g id="clust15" class="cluster">
<title>cluster_AppModule_imports</title>
<polygon fill="none" stroke="black" points="1562,-284 1562,-412 2419,-412 2419,-284 1562,-284"/>
</g>
<g id="clust18" class="cluster">
<title>cluster_AppModule_providers</title>
<polygon fill="none" stroke="black" points="1424,-360 1424,-412 1554,-412 1554,-360 1424,-360"/>
</g>
<g id="clust19" class="cluster">
<title>cluster_AuthModule</title>
<polygon fill="none" stroke="black" stroke-dasharray="1,5" points="2301,-200 2301,-268 2961,-268 2961,-200 2301,-200"/>
</g>
<g id="clust24" class="cluster">
<title>cluster_AuthModule_providers</title>
<polygon fill="none" stroke="black" points="2309,-208 2309,-260 2953,-260 2953,-208 2309,-208"/>
</g>
<g id="clust25" class="cluster">
<title>cluster_EventsModule</title>
<polygon fill="none" stroke="black" stroke-dasharray="1,5" points="1563,-200 1563,-268 1727,-268 1727,-200 1563,-200"/>
</g>
<g id="clust30" class="cluster">
<title>cluster_EventsModule_providers</title>
<polygon fill="none" stroke="black" points="1571,-208 1571,-260 1719,-260 1719,-208 1571,-208"/>
</g>
<g id="clust31" class="cluster">
<title>cluster_ImagekitModule</title>
<polygon fill="none" stroke="black" stroke-dasharray="1,5" points="1735,-200 1735,-268 1915,-268 1915,-200 1735,-200"/>
</g>
<g id="clust36" class="cluster">
<title>cluster_ImagekitModule_providers</title>
<polygon fill="none" stroke="black" points="1743,-208 1743,-260 1907,-260 1907,-208 1743,-208"/>
</g>
<g id="clust37" class="cluster">
<title>cluster_NewsModule</title>
<polygon fill="none" stroke="black" stroke-dasharray="1,5" points="1923,-200 1923,-268 2079,-268 2079,-200 1923,-200"/>
</g>
<g id="clust42" class="cluster">
<title>cluster_NewsModule_providers</title>
<polygon fill="none" stroke="black" points="1931,-208 1931,-260 2071,-260 2071,-208 1931,-208"/>
</g>
<g id="clust43" class="cluster">
<title>cluster_OpportunityModule</title>
<polygon fill="none" stroke="black" stroke-dasharray="1,5" points="2087,-200 2087,-268 2293,-268 2293,-200 2087,-200"/>
</g>
<g id="clust48" class="cluster">
<title>cluster_OpportunityModule_providers</title>
<polygon fill="none" stroke="black" points="2095,-208 2095,-260 2285,-260 2285,-208 2095,-208"/>
</g>
<g id="clust49" class="cluster">
<title>cluster_OrganizationModule</title>
<polygon fill="none" stroke="black" stroke-dasharray="1,5" points="768,-352 768,-420 1138,-420 1138,-352 768,-352"/>
</g>
<g id="clust52" class="cluster">
<title>cluster_OrganizationModule_exports</title>
<polygon fill="none" stroke="black" points="980,-360 980,-412 1130,-412 1130,-360 980,-360"/>
</g>
<g id="clust54" class="cluster">
<title>cluster_OrganizationModule_providers</title>
<polygon fill="none" stroke="black" points="776,-360 776,-412 972,-412 972,-360 776,-360"/>
</g>
<g id="clust55" class="cluster">
<title>cluster_SharedModule</title>
<polygon fill="none" stroke="black" stroke-dasharray="1,5" points="8,-276 8,-344 444,-344 444,-276 8,-276"/>
</g>
<g id="clust58" class="cluster">
<title>cluster_SharedModule_exports</title>
<polygon fill="none" stroke="black" points="174,-284 174,-336 436,-336 436,-284 174,-284"/>
</g>
<g id="clust60" class="cluster">
<title>cluster_SharedModule_providers</title>
<polygon fill="none" stroke="black" points="16,-284 16,-336 166,-336 166,-284 16,-284"/>
</g>
<g id="clust61" class="cluster">
<title>cluster_TagsModule</title>
<polygon fill="none" stroke="black" stroke-dasharray="1,5" points="1146,-352 1146,-420 1408,-420 1408,-352 1146,-352"/>
</g>
<g id="clust64" class="cluster">
<title>cluster_TagsModule_exports</title>
<polygon fill="none" stroke="black" points="1296,-360 1296,-412 1400,-412 1400,-360 1296,-360"/>
</g>
<g id="clust66" class="cluster">
<title>cluster_TagsModule_providers</title>
<polygon fill="none" stroke="black" points="1154,-360 1154,-412 1288,-412 1288,-360 1154,-360"/>
</g>
<g id="clust67" class="cluster">
<title>cluster_UserModule</title>
<polygon fill="none" stroke="black" stroke-dasharray="1,5" points="1133,-200 1133,-268 1555,-268 1555,-200 1133,-200"/>
</g>
<g id="clust70" class="cluster">
<title>cluster_UserModule_exports</title>
<polygon fill="none" stroke="black" points="1443,-208 1443,-260 1547,-260 1547,-208 1443,-208"/>
</g>
<g id="clust72" class="cluster">
<title>cluster_UserModule_providers</title>
<polygon fill="none" stroke="black" points="1141,-208 1141,-260 1435,-260 1435,-208 1141,-208"/>
</g>
<!-- SharedModule -->
<g id="node1" class="node">
<title>SharedModule</title>
<polygon fill="#8dd3c7" stroke="black" points="744.42,-252 741.42,-256 720.42,-256 717.42,-252 645.58,-252 645.58,-216 744.42,-216 744.42,-252"/>
<text text-anchor="middle" x="695" y="-229.8" font-family="Times,serif" font-size="14.00">SharedModule</text>
</g>
<!-- AnalyticsModule -->
<g id="node2" class="node">
<title>AnalyticsModule</title>
<polygon fill="#8dd3c7" stroke="black" points="677.7,-328 674.7,-332 653.7,-332 650.7,-328 564.3,-328 564.3,-292 677.7,-292 677.7,-328"/>
<text text-anchor="middle" x="621" y="-305.8" font-family="Times,serif" font-size="14.00">AnalyticsModule</text>
</g>
<!-- SharedModule&#45;&gt;AnalyticsModule -->
<g id="edge1" class="edge">
<title>SharedModule&#45;&gt;AnalyticsModule</title>
<path fill="none" stroke="black" d="M671.24,-252.01C671.24,-252.01 671.24,-281.85 671.24,-281.85"/>
<polygon fill="black" stroke="black" points="667.74,-281.85 671.24,-291.85 674.74,-281.85 667.74,-281.85"/>
</g>
<!-- AuthModule -->
<g id="node8" class="node">
<title>AuthModule</title>
<polygon fill="#8dd3c7" stroke="black" points="2410.55,-404 2407.55,-408 2386.55,-408 2383.55,-404 2323.45,-404 2323.45,-368 2410.55,-368 2410.55,-404"/>
<text text-anchor="middle" x="2367" y="-381.8" font-family="Times,serif" font-size="14.00">AuthModule</text>
</g>
<!-- SharedModule&#45;&gt;AuthModule -->
<g id="edge17" class="edge">
<title>SharedModule&#45;&gt;AuthModule</title>
<path fill="none" stroke="black" d="M732.89,-252.12C732.89,-281.91 732.89,-338 732.89,-338 732.89,-338 2367,-338 2367,-338 2367,-338 2367,-357.85 2367,-357.85"/>
<polygon fill="black" stroke="black" points="2363.5,-357.85 2367,-367.85 2370.5,-357.85 2363.5,-357.85"/>
</g>
<!-- EventsModule -->
<g id="node9" class="node">
<title>EventsModule</title>
<polygon fill="#8dd3c7" stroke="black" points="2154.65,-328 2151.65,-332 2130.65,-332 2127.65,-328 2057.35,-328 2057.35,-292 2154.65,-292 2154.65,-328"/>
<text text-anchor="middle" x="2106" y="-305.8" font-family="Times,serif" font-size="14.00">EventsModule</text>
</g>
<!-- SharedModule&#45;&gt;EventsModule -->
<g id="edge23" class="edge">
<title>SharedModule&#45;&gt;EventsModule</title>
<path fill="none" stroke="black" d="M735.15,-252.06C735.15,-263.44 735.15,-276 735.15,-276 735.15,-276 2076.25,-276 2076.25,-276 2076.25,-276 2076.25,-281.81 2076.25,-281.81"/>
<polygon fill="black" stroke="black" points="2072.75,-281.81 2076.25,-291.81 2079.75,-281.81 2072.75,-281.81"/>
</g>
<!-- ImagekitModule -->
<g id="node10" class="node">
<title>ImagekitModule</title>
<polygon fill="#8dd3c7" stroke="black" points="1934.81,-328 1931.81,-332 1910.81,-332 1907.81,-328 1825.19,-328 1825.19,-292 1934.81,-292 1934.81,-328"/>
<text text-anchor="middle" x="1880" y="-305.8" font-family="Times,serif" font-size="14.00">ImagekitModule</text>
</g>
<!-- SharedModule&#45;&gt;ImagekitModule -->
<g id="edge26" class="edge">
<title>SharedModule&#45;&gt;ImagekitModule</title>
<path fill="none" stroke="black" d="M726.09,-252.19C726.09,-267.18 726.09,-286 726.09,-286 726.09,-286 1850,-286 1850,-286 1850,-286 1850,-286.58 1850,-286.58"/>
<polygon fill="black" stroke="black" points="1846.5,-281.81 1850,-291.81 1853.5,-281.81 1846.5,-281.81"/>
</g>
<!-- NewsModule -->
<g id="node11" class="node">
<title>NewsModule</title>
<polygon fill="#8dd3c7" stroke="black" points="2264.92,-328 2261.92,-332 2240.92,-332 2237.92,-328 2173.08,-328 2173.08,-292 2264.92,-292 2264.92,-328"/>
<text text-anchor="middle" x="2219" y="-305.8" font-family="Times,serif" font-size="14.00">NewsModule</text>
</g>
<!-- SharedModule&#45;&gt;NewsModule -->
<g id="edge28" class="edge">
<title>SharedModule&#45;&gt;NewsModule</title>
<path fill="none" stroke="black" d="M737.42,-252.07C737.42,-261.46 737.42,-271 737.42,-271 737.42,-271 2196.14,-271 2196.14,-271 2196.14,-271 2196.14,-281.87 2196.14,-281.87"/>
<polygon fill="black" stroke="black" points="2192.64,-281.87 2196.14,-291.87 2199.64,-281.87 2192.64,-281.87"/>
</g>
<!-- OpportunityModule -->
<g id="node12" class="node">
<title>OpportunityModule</title>
<polygon fill="#8dd3c7" stroke="black" points="2410.99,-328 2407.99,-332 2386.99,-332 2383.99,-328 2283.01,-328 2283.01,-292 2410.99,-292 2410.99,-328"/>
<text text-anchor="middle" x="2347" y="-305.8" font-family="Times,serif" font-size="14.00">OpportunityModule</text>
</g>
<!-- SharedModule&#45;&gt;OpportunityModule -->
<g id="edge31" class="edge">
<title>SharedModule&#45;&gt;OpportunityModule</title>
<path fill="none" stroke="black" d="M739.68,-252.08C739.68,-253.85 739.68,-255 739.68,-255 739.68,-255 2300.03,-255 2300.03,-255 2300.03,-255 2300.03,-281.99 2300.03,-281.99"/>
<polygon fill="black" stroke="black" points="2296.53,-281.99 2300.03,-291.99 2303.53,-281.99 2296.53,-281.99"/>
</g>
<!-- OrganizationModule -->
<g id="node13" class="node">
<title>OrganizationModule</title>
<polygon fill="#8dd3c7" stroke="black" points="1702.13,-328 1699.13,-332 1678.13,-332 1675.13,-328 1569.87,-328 1569.87,-292 1702.13,-292 1702.13,-328"/>
<text text-anchor="middle" x="1636" y="-305.8" font-family="Times,serif" font-size="14.00">OrganizationModule</text>
</g>
<!-- SharedModule&#45;&gt;OrganizationModule -->
<g id="edge34" class="edge">
<title>SharedModule&#45;&gt;OrganizationModule</title>
<path fill="none" stroke="black" d="M741.95,-252.31C741.95,-272.15 741.95,-301 741.95,-301 741.95,-301 1559.53,-301 1559.53,-301"/>
<polygon fill="black" stroke="black" points="1559.53,-304.5 1569.53,-301 1559.53,-297.5 1559.53,-304.5"/>
</g>
<!-- TagsModule -->
<g id="node14" class="node">
<title>TagsModule</title>
<polygon fill="#8dd3c7" stroke="black" points="1807.26,-328 1804.26,-332 1783.26,-332 1780.26,-328 1720.74,-328 1720.74,-292 1807.26,-292 1807.26,-328"/>
<text text-anchor="middle" x="1764" y="-305.8" font-family="Times,serif" font-size="14.00">TagsModule</text>
</g>
<!-- SharedModule&#45;&gt;TagsModule -->
<g id="edge42" class="edge">
<title>SharedModule&#45;&gt;TagsModule</title>
<path fill="none" stroke="black" d="M723.83,-252.28C723.83,-267.95 723.83,-288 723.83,-288 723.83,-288 1735.65,-288 1735.65,-288 1735.65,-288 1735.65,-288.38 1735.65,-288.38"/>
<polygon fill="black" stroke="black" points="1732.15,-281.83 1735.65,-291.83 1739.15,-281.83 1732.15,-281.83"/>
</g>
<!-- UserModule -->
<g id="node15" class="node">
<title>UserModule</title>
<polygon fill="#8dd3c7" stroke="black" points="2038.98,-328 2035.98,-332 2014.98,-332 2011.98,-328 1953.02,-328 1953.02,-292 2038.98,-292 2038.98,-328"/>
<text text-anchor="middle" x="1996" y="-305.8" font-family="Times,serif" font-size="14.00">UserModule</text>
</g>
<!-- SharedModule&#45;&gt;UserModule -->
<g id="edge45" class="edge">
<title>SharedModule&#45;&gt;UserModule</title>
<path fill="none" stroke="black" d="M728.36,-252.05C728.36,-266.37 728.36,-284 728.36,-284 728.36,-284 1967.34,-284 1967.34,-284 1967.34,-284 1967.34,-284.79 1967.34,-284.79"/>
<polygon fill="black" stroke="black" points="1963.84,-281.94 1967.34,-291.94 1970.84,-281.94 1963.84,-281.94"/>
</g>
<!-- AppModule -->
<g id="node16" class="node">
<title>AppModule</title>
<polygon fill="#8dd3c7" stroke="black" points="1921.66,-469 1918.66,-473 1897.66,-473 1894.66,-469 1838.34,-469 1838.34,-433 1921.66,-433 1921.66,-469"/>
<text text-anchor="middle" x="1880" y="-446.8" font-family="Times,serif" font-size="14.00">AppModule</text>
</g>
<!-- SharedModule&#45;&gt;AppModule -->
<g id="edge13" class="edge">
<title>SharedModule&#45;&gt;AppModule</title>
<path fill="none" stroke="black" d="M730.62,-252.09C730.62,-304.87 730.62,-455 730.62,-455 730.62,-455 1828.07,-455 1828.07,-455"/>
<polygon fill="black" stroke="black" points="1828.07,-458.5 1838.07,-455 1828.07,-451.5 1828.07,-458.5"/>
</g>
<!-- AppLoggerModule  -->
<g id="node28" class="node">
<title>AppLoggerModule </title>
<polygon fill="#fb8072" stroke="black" points="309.58,-328 182.42,-328 182.42,-292 309.58,-292 309.58,-328"/>
<text text-anchor="middle" x="246" y="-305.8" font-family="Times,serif" font-size="14.00">AppLoggerModule </text>
</g>
<!-- SharedModule&#45;&gt;AppLoggerModule  -->
<g id="edge39" class="edge">
<title>SharedModule&#45;&gt;AppLoggerModule </title>
<path fill="none" stroke="black" stroke-dasharray="5,2" d="M658.51,-252.16C658.51,-257.04 658.51,-261 658.51,-261 658.51,-261 246,-261 246,-261 246,-261 246,-281.75 246,-281.75"/>
<polygon fill="black" stroke="black" points="242.5,-281.75 246,-291.75 249.5,-281.75 242.5,-281.75"/>
</g>
<!-- PrismaService  -->
<g id="node29" class="node">
<title>PrismaService </title>
<polygon fill="#fb8072" stroke="black" points="428.36,-328 327.64,-328 327.64,-292 428.36,-292 428.36,-328"/>
<text text-anchor="middle" x="378" y="-305.8" font-family="Times,serif" font-size="14.00">PrismaService </text>
</g>
<!-- SharedModule&#45;&gt;PrismaService  -->
<g id="edge40" class="edge">
<title>SharedModule&#45;&gt;PrismaService </title>
<path fill="none" stroke="black" stroke-dasharray="5,2" d="M664.88,-252.03C664.88,-258.85 664.88,-265 664.88,-265 664.88,-265 378,-265 378,-265 378,-265 378,-281.96 378,-281.96"/>
<polygon fill="black" stroke="black" points="374.5,-281.96 378,-291.96 381.5,-281.96 374.5,-281.96"/>
</g>
<!-- AnalyticsService  -->
<g id="node3" class="node">
<title>AnalyticsService </title>
<polygon fill="#fb8072" stroke="black" points="721.63,-404 606.37,-404 606.37,-368 721.63,-368 721.63,-404"/>
<text text-anchor="middle" x="664" y="-381.8" font-family="Times,serif" font-size="14.00">AnalyticsService </text>
</g>
<!-- AnalyticsModule&#45;&gt;AnalyticsService  -->
<g id="edge2" class="edge">
<title>AnalyticsModule&#45;&gt;AnalyticsService </title>
<path fill="none" stroke="black" stroke-dasharray="5,2" d="M642.02,-328.01C642.02,-328.01 642.02,-357.85 642.02,-357.85"/>
<polygon fill="black" stroke="black" points="638.52,-357.85 642.02,-367.85 645.52,-357.85 638.52,-357.85"/>
</g>
<!-- AnalyticsModule&#45;&gt;AppModule -->
<g id="edge6" class="edge">
<title>AnalyticsModule&#45;&gt;AppModule</title>
<path fill="none" stroke="black" d="M585.42,-328.03C585.42,-368.3 585.42,-462 585.42,-462 585.42,-462 1828.03,-462 1828.03,-462"/>
<polygon fill="black" stroke="black" points="1828.03,-465.5 1838.03,-462 1828.03,-458.5 1828.03,-465.5"/>
</g>
<!-- AnalyticsService -->
<g id="node4" class="node">
<title>AnalyticsService</title>
<ellipse fill="#fdb462" stroke="black" cx="545" cy="-234" rx="77" ry="18"/>
<text text-anchor="middle" x="545" y="-229.8" font-family="Times,serif" font-size="14.00">AnalyticsService</text>
</g>
<!-- AnalyticsService&#45;&gt;AnalyticsModule -->
<g id="edge3" class="edge">
<title>AnalyticsService&#45;&gt;AnalyticsModule</title>
<path fill="none" stroke="black" d="M593.2,-248.3C593.2,-248.3 593.2,-281.73 593.2,-281.73"/>
<polygon fill="black" stroke="black" points="589.7,-281.73 593.2,-291.73 596.7,-281.73 589.7,-281.73"/>
</g>
<!-- AppLogger  -->
<g id="node5" class="node">
<title>AppLogger </title>
<polygon fill="#fb8072" stroke="black" points="881.03,-252 796.97,-252 796.97,-216 881.03,-216 881.03,-252"/>
<text text-anchor="middle" x="839" y="-229.8" font-family="Times,serif" font-size="14.00">AppLogger </text>
</g>
<!-- AppLoggerModule -->
<g id="node6" class="node">
<title>AppLoggerModule</title>
<polygon fill="#8dd3c7" stroke="black" points="901.08,-187 898.08,-191 877.08,-191 874.08,-187 776.92,-187 776.92,-151 901.08,-151 901.08,-187"/>
<text text-anchor="middle" x="839" y="-164.8" font-family="Times,serif" font-size="14.00">AppLoggerModule</text>
</g>
<!-- AppLoggerModule&#45;&gt;SharedModule -->
<g id="edge38" class="edge">
<title>AppLoggerModule&#45;&gt;SharedModule</title>
<path fill="none" stroke="black" d="M790.29,-187.11C790.29,-206.34 790.29,-234 790.29,-234 790.29,-234 754.32,-234 754.32,-234"/>
<polygon fill="black" stroke="black" points="754.32,-230.5 744.32,-234 754.32,-237.5 754.32,-230.5"/>
</g>
<!-- AppLoggerModule&#45;&gt;AppLogger  -->
<g id="edge4" class="edge">
<title>AppLoggerModule&#45;&gt;AppLogger </title>
<path fill="none" stroke="black" stroke-dasharray="5,2" d="M839,-187.11C839,-187.11 839,-205.99 839,-205.99"/>
<polygon fill="black" stroke="black" points="835.5,-205.99 839,-215.99 842.5,-205.99 835.5,-205.99"/>
</g>
<!-- AppLogger -->
<g id="node7" class="node">
<title>AppLogger</title>
<ellipse fill="#fdb462" stroke="black" cx="840" cy="-104" rx="55.6" ry="18"/>
<text text-anchor="middle" x="840" y="-99.8" font-family="Times,serif" font-size="14.00">AppLogger</text>
</g>
<!-- AppLogger&#45;&gt;AppLoggerModule -->
<g id="edge5" class="edge">
<title>AppLogger&#45;&gt;AppLoggerModule</title>
<path fill="none" stroke="black" d="M840,-122.11C840,-122.11 840,-140.99 840,-140.99"/>
<polygon fill="black" stroke="black" points="836.5,-140.99 840,-150.99 843.5,-140.99 836.5,-140.99"/>
</g>
<!-- AuthModule&#45;&gt;AppModule -->
<g id="edge7" class="edge">
<title>AuthModule&#45;&gt;AppModule</title>
<path fill="none" stroke="black" d="M2323.15,-395C2207.13,-395 1900.91,-395 1900.91,-395 1900.91,-395 1900.91,-422.97 1900.91,-422.97"/>
<polygon fill="black" stroke="black" points="1897.41,-422.97 1900.91,-432.97 1904.41,-422.97 1897.41,-422.97"/>
</g>
<!-- EventsModule&#45;&gt;AppModule -->
<g id="edge8" class="edge">
<title>EventsModule&#45;&gt;AppModule</title>
<path fill="none" stroke="black" d="M2106,-328.04C2106,-365.45 2106,-448 2106,-448 2106,-448 1931.72,-448 1931.72,-448"/>
<polygon fill="black" stroke="black" points="1931.72,-444.5 1921.72,-448 1931.72,-451.5 1931.72,-444.5"/>
</g>
<!-- ImagekitModule&#45;&gt;AppModule -->
<g id="edge9" class="edge">
<title>ImagekitModule&#45;&gt;AppModule</title>
<path fill="none" stroke="black" d="M1880,-328.14C1880,-328.14 1880,-422.93 1880,-422.93"/>
<polygon fill="black" stroke="black" points="1876.5,-422.92 1880,-432.93 1883.5,-422.93 1876.5,-422.92"/>
</g>
<!-- NewsModule&#45;&gt;AppModule -->
<g id="edge10" class="edge">
<title>NewsModule&#45;&gt;AppModule</title>
<path fill="none" stroke="black" d="M2219,-328.07C2219,-366.94 2219,-455 2219,-455 2219,-455 1931.91,-455 1931.91,-455"/>
<polygon fill="black" stroke="black" points="1931.91,-451.5 1921.91,-455 1931.91,-458.5 1931.91,-451.5"/>
</g>
<!-- OpportunityModule&#45;&gt;AppModule -->
<g id="edge11" class="edge">
<title>OpportunityModule&#45;&gt;AppModule</title>
<path fill="none" stroke="black" d="M2303.12,-328.03C2303.12,-368.3 2303.12,-462 2303.12,-462 2303.12,-462 1931.73,-462 1931.73,-462"/>
<polygon fill="black" stroke="black" points="1931.73,-458.5 1921.73,-462 1931.73,-465.5 1931.73,-458.5"/>
</g>
<!-- OrganizationModule&#45;&gt;AppModule -->
<g id="edge12" class="edge">
<title>OrganizationModule&#45;&gt;AppModule</title>
<path fill="none" stroke="black" d="M1636,-328.04C1636,-365.45 1636,-448 1636,-448 1636,-448 1828.33,-448 1828.33,-448"/>
<polygon fill="black" stroke="black" points="1828.33,-451.5 1838.33,-448 1828.33,-444.5 1828.33,-451.5"/>
</g>
<!-- OrganizationService  -->
<g id="node26" class="node">
<title>OrganizationService </title>
<polygon fill="#fb8072" stroke="black" points="1122.06,-404 987.94,-404 987.94,-368 1122.06,-368 1122.06,-404"/>
<text text-anchor="middle" x="1055" y="-381.8" font-family="Times,serif" font-size="14.00">OrganizationService </text>
</g>
<!-- OrganizationModule&#45;&gt;OrganizationService  -->
<g id="edge35" class="edge">
<title>OrganizationModule&#45;&gt;OrganizationService </title>
<path fill="none" stroke="black" stroke-dasharray="5,2" d="M1569.63,-319C1417.19,-319 1055,-319 1055,-319 1055,-319 1055,-357.69 1055,-357.69"/>
<polygon fill="black" stroke="black" points="1051.5,-357.69 1055,-367.69 1058.5,-357.69 1051.5,-357.69"/>
</g>
<!-- TagsModule&#45;&gt;AppModule -->
<g id="edge14" class="edge">
<title>TagsModule&#45;&gt;AppModule</title>
<path fill="none" stroke="black" d="M1785.69,-328.21C1785.69,-364.21 1785.69,-441 1785.69,-441 1785.69,-441 1828.09,-441 1828.09,-441"/>
<polygon fill="black" stroke="black" points="1828.09,-444.5 1838.09,-441 1828.09,-437.5 1828.09,-444.5"/>
</g>
<!-- TagsService  -->
<g id="node31" class="node">
<title>TagsService </title>
<polygon fill="#fb8072" stroke="black" points="1392.19,-404 1303.81,-404 1303.81,-368 1392.19,-368 1392.19,-404"/>
<text text-anchor="middle" x="1348" y="-381.8" font-family="Times,serif" font-size="14.00">TagsService </text>
</g>
<!-- TagsModule&#45;&gt;TagsService  -->
<g id="edge43" class="edge">
<title>TagsModule&#45;&gt;TagsService </title>
<path fill="none" stroke="black" stroke-dasharray="5,2" d="M1764,-328.15C1764,-341.74 1764,-358 1764,-358 1764,-358 1348,-358 1348,-358 1348,-358 1348,-358.98 1348,-358.98"/>
<polygon fill="black" stroke="black" points="1344.5,-357.79 1348,-367.79 1351.5,-357.79 1344.5,-357.79"/>
</g>
<!-- UserModule&#45;&gt;AuthModule -->
<g id="edge18" class="edge">
<title>UserModule&#45;&gt;AuthModule</title>
<path fill="none" stroke="black" d="M2010.33,-328.01C2010.33,-350.49 2010.33,-386 2010.33,-386 2010.33,-386 2313.27,-386 2313.27,-386"/>
<polygon fill="black" stroke="black" points="2313.27,-389.5 2323.27,-386 2313.27,-382.5 2313.27,-389.5"/>
</g>
<!-- UserModule&#45;&gt;AppModule -->
<g id="edge15" class="edge">
<title>UserModule&#45;&gt;AppModule</title>
<path fill="none" stroke="black" d="M1981.67,-328.21C1981.67,-364.21 1981.67,-441 1981.67,-441 1981.67,-441 1931.94,-441 1931.94,-441"/>
<polygon fill="black" stroke="black" points="1931.94,-437.5 1921.94,-441 1931.94,-444.5 1931.94,-437.5"/>
</g>
<!-- UserService  -->
<g id="node33" class="node">
<title>UserService </title>
<polygon fill="#fb8072" stroke="black" points="1538.9,-252 1451.1,-252 1451.1,-216 1538.9,-216 1538.9,-252"/>
<text text-anchor="middle" x="1495" y="-229.8" font-family="Times,serif" font-size="14.00">UserService </text>
</g>
<!-- UserModule&#45;&gt;UserService  -->
<g id="edge46" class="edge">
<title>UserModule&#45;&gt;UserService </title>
<path fill="none" stroke="black" stroke-dasharray="5,2" d="M2010.33,-291.76C2010.33,-284.57 2010.33,-278 2010.33,-278 2010.33,-278 1495,-278 1495,-278 1495,-278 1495,-262.15 1495,-262.15"/>
<polygon fill="black" stroke="black" points="1498.5,-262.15 1495,-252.15 1491.5,-262.15 1498.5,-262.15"/>
</g>
<!-- AppService -->
<g id="node17" class="node">
<title>AppService</title>
<ellipse fill="#fdb462" stroke="black" cx="1489" cy="-386" rx="56.74" ry="18"/>
<text text-anchor="middle" x="1489" y="-381.8" font-family="Times,serif" font-size="14.00">AppService</text>
</g>
<!-- AppService&#45;&gt;AppModule -->
<g id="edge16" class="edge">
<title>AppService&#45;&gt;AppModule</title>
<path fill="none" stroke="black" d="M1538.14,-377C1638.82,-377 1859.09,-377 1859.09,-377 1859.09,-377 1859.09,-422.71 1859.09,-422.71"/>
<polygon fill="black" stroke="black" points="1855.59,-422.71 1859.09,-432.71 1862.59,-422.71 1855.59,-422.71"/>
</g>
<!-- AuthService -->
<g id="node18" class="node">
<title>AuthService</title>
<ellipse fill="#fdb462" stroke="black" cx="2546" cy="-234" rx="59.11" ry="18"/>
<text text-anchor="middle" x="2546" y="-229.8" font-family="Times,serif" font-size="14.00">AuthService</text>
</g>
<!-- AuthService&#45;&gt;AuthModule -->
<g id="edge19" class="edge">
<title>AuthService&#45;&gt;AuthModule</title>
<path fill="none" stroke="black" d="M2546,-252.27C2546,-292.06 2546,-383 2546,-383 2546,-383 2420.79,-383 2420.79,-383"/>
<polygon fill="black" stroke="black" points="2420.79,-379.5 2410.79,-383 2420.79,-386.5 2420.79,-379.5"/>
</g>
<!-- JwtAuthStrategy -->
<g id="node19" class="node">
<title>JwtAuthStrategy</title>
<ellipse fill="#fdb462" stroke="black" cx="2393" cy="-234" rx="75.88" ry="18"/>
<text text-anchor="middle" x="2393" y="-229.8" font-family="Times,serif" font-size="14.00">JwtAuthStrategy</text>
</g>
<!-- JwtAuthStrategy&#45;&gt;AuthModule -->
<g id="edge20" class="edge">
<title>JwtAuthStrategy&#45;&gt;AuthModule</title>
<path fill="none" stroke="black" d="M2439.97,-248.4C2439.97,-284.5 2439.97,-376 2439.97,-376 2439.97,-376 2420.71,-376 2420.71,-376"/>
<polygon fill="black" stroke="black" points="2420.71,-372.5 2410.71,-376 2420.71,-379.5 2420.71,-372.5"/>
</g>
<!-- JwtAuthStrategy&#45;&gt;EventsModule -->
<g id="edge25" class="edge">
<title>JwtAuthStrategy&#45;&gt;EventsModule</title>
<path fill="none" stroke="black" d="M2364.03,-250.89C2364.03,-259.01 2364.03,-267 2364.03,-267 2364.03,-267 2128.81,-267 2128.81,-267 2128.81,-267 2128.81,-281.51 2128.81,-281.51"/>
<polygon fill="black" stroke="black" points="2125.31,-281.51 2128.81,-291.51 2132.31,-281.51 2125.31,-281.51"/>
</g>
<!-- JwtAuthStrategy&#45;&gt;NewsModule -->
<g id="edge29" class="edge">
<title>JwtAuthStrategy&#45;&gt;NewsModule</title>
<path fill="none" stroke="black" d="M2379.68,-252.03C2379.68,-268.4 2379.68,-290 2379.68,-290 2379.68,-290 2241.86,-290 2241.86,-290 2241.86,-290 2241.86,-290.18 2241.86,-290.18"/>
<polygon fill="black" stroke="black" points="2238.36,-281.85 2241.86,-291.85 2245.36,-281.85 2238.36,-281.85"/>
</g>
<!-- JwtAuthStrategy&#45;&gt;OpportunityModule -->
<g id="edge32" class="edge">
<title>JwtAuthStrategy&#45;&gt;OpportunityModule</title>
<path fill="none" stroke="black" d="M2395.34,-252.01C2395.34,-252.01 2395.34,-281.85 2395.34,-281.85"/>
<polygon fill="black" stroke="black" points="2391.84,-281.85 2395.34,-291.85 2398.84,-281.85 2391.84,-281.85"/>
</g>
<!-- JwtAuthStrategy&#45;&gt;OrganizationModule -->
<g id="edge36" class="edge">
<title>JwtAuthStrategy&#45;&gt;OrganizationModule</title>
<path fill="none" stroke="black" d="M2332.72,-244.96C2332.72,-250.89 2332.72,-257 2332.72,-257 2332.72,-257 1640.52,-257 1640.52,-257 1640.52,-257 1640.52,-281.76 1640.52,-281.76"/>
<polygon fill="black" stroke="black" points="1637.02,-281.76 1640.52,-291.76 1644.02,-281.76 1637.02,-281.76"/>
</g>
<!-- JwtAuthStrategy&#45;&gt;UserModule -->
<g id="edge47" class="edge">
<title>JwtAuthStrategy&#45;&gt;UserModule</title>
<path fill="none" stroke="black" d="M2348.37,-248.84C2348.37,-255.97 2348.37,-263 2348.37,-263 2348.37,-263 2024.66,-263 2024.66,-263 2024.66,-263 2024.66,-281.96 2024.66,-281.96"/>
<polygon fill="black" stroke="black" points="2021.16,-281.96 2024.66,-291.96 2028.16,-281.96 2021.16,-281.96"/>
</g>
<!-- JwtRefreshStrategy -->
<g id="node20" class="node">
<title>JwtRefreshStrategy</title>
<ellipse fill="#fdb462" stroke="black" cx="2710" cy="-234" rx="86.81" ry="18"/>
<text text-anchor="middle" x="2710" y="-229.8" font-family="Times,serif" font-size="14.00">JwtRefreshStrategy</text>
</g>
<!-- JwtRefreshStrategy&#45;&gt;AuthModule -->
<g id="edge21" class="edge">
<title>JwtRefreshStrategy&#45;&gt;AuthModule</title>
<path fill="none" stroke="black" d="M2710,-252.2C2710,-293.35 2710,-390 2710,-390 2710,-390 2420.79,-390 2420.79,-390"/>
<polygon fill="black" stroke="black" points="2420.79,-386.5 2410.79,-390 2420.79,-393.5 2420.79,-386.5"/>
</g>
<!-- LocalStrategy -->
<g id="node21" class="node">
<title>LocalStrategy</title>
<ellipse fill="#fdb462" stroke="black" cx="2880" cy="-234" rx="65.41" ry="18"/>
<text text-anchor="middle" x="2880" y="-229.8" font-family="Times,serif" font-size="14.00">LocalStrategy</text>
</g>
<!-- LocalStrategy&#45;&gt;AuthModule -->
<g id="edge22" class="edge">
<title>LocalStrategy&#45;&gt;AuthModule</title>
<path fill="none" stroke="black" d="M2880,-252.07C2880,-294.51 2880,-397 2880,-397 2880,-397 2420.74,-397 2420.74,-397"/>
<polygon fill="black" stroke="black" points="2420.74,-393.5 2410.74,-397 2420.74,-400.5 2420.74,-393.5"/>
</g>
<!-- EventsService -->
<g id="node22" class="node">
<title>EventsService</title>
<ellipse fill="#fdb462" stroke="black" cx="1645" cy="-234" rx="66.05" ry="18"/>
<text text-anchor="middle" x="1645" y="-229.8" font-family="Times,serif" font-size="14.00">EventsService</text>
</g>
<!-- EventsService&#45;&gt;EventsModule -->
<g id="edge24" class="edge">
<title>EventsService&#45;&gt;EventsModule</title>
<path fill="none" stroke="black" d="M1706.8,-240.61C1706.8,-251.97 1706.8,-274 1706.8,-274 1706.8,-274 2089.53,-274 2089.53,-274 2089.53,-274 2089.53,-281.58 2089.53,-281.58"/>
<polygon fill="black" stroke="black" points="2086.03,-281.58 2089.53,-291.58 2093.03,-281.58 2086.03,-281.58"/>
</g>
<!-- ImagekitService -->
<g id="node23" class="node">
<title>ImagekitService</title>
<ellipse fill="#fdb462" stroke="black" cx="1825" cy="-234" rx="74.13" ry="18"/>
<text text-anchor="middle" x="1825" y="-229.8" font-family="Times,serif" font-size="14.00">ImagekitService</text>
</g>
<!-- ImagekitService&#45;&gt;ImagekitModule -->
<g id="edge27" class="edge">
<title>ImagekitService&#45;&gt;ImagekitModule</title>
<path fill="none" stroke="black" d="M1874.66,-247.59C1874.66,-247.59 1874.66,-281.96 1874.66,-281.96"/>
<polygon fill="black" stroke="black" points="1871.16,-281.96 1874.66,-291.96 1878.16,-281.96 1871.16,-281.96"/>
</g>
<!-- NewsService -->
<g id="node24" class="node">
<title>NewsService</title>
<ellipse fill="#fdb462" stroke="black" cx="2001" cy="-234" rx="61.95" ry="18"/>
<text text-anchor="middle" x="2001" y="-229.8" font-family="Times,serif" font-size="14.00">NewsService</text>
</g>
<!-- NewsService&#45;&gt;NewsModule -->
<g id="edge30" class="edge">
<title>NewsService&#45;&gt;NewsModule</title>
<path fill="none" stroke="black" d="M2048.08,-245.85C2048.08,-256 2048.08,-269 2048.08,-269 2048.08,-269 2219,-269 2219,-269 2219,-269 2219,-281.9 2219,-281.9"/>
<polygon fill="black" stroke="black" points="2215.5,-281.9 2219,-291.9 2222.5,-281.9 2215.5,-281.9"/>
</g>
<!-- OpportunityService -->
<g id="node25" class="node">
<title>OpportunityService</title>
<ellipse fill="#fdb462" stroke="black" cx="2190" cy="-234" rx="87.4" ry="18"/>
<text text-anchor="middle" x="2190" y="-229.8" font-family="Times,serif" font-size="14.00">OpportunityService</text>
</g>
<!-- OpportunityService&#45;&gt;OpportunityModule -->
<g id="edge33" class="edge">
<title>OpportunityService&#45;&gt;OpportunityModule</title>
<path fill="none" stroke="black" d="M2270.96,-240.74C2270.96,-259.34 2270.96,-310 2270.96,-310 2270.96,-310 2272.84,-310 2272.84,-310"/>
<polygon fill="black" stroke="black" points="2272.84,-313.5 2282.84,-310 2272.84,-306.5 2272.84,-313.5"/>
</g>
<!-- OrganizationService -->
<g id="node27" class="node">
<title>OrganizationService</title>
<ellipse fill="#fdb462" stroke="black" cx="874" cy="-386" rx="90.31" ry="18"/>
<text text-anchor="middle" x="874" y="-381.8" font-family="Times,serif" font-size="14.00">OrganizationService</text>
</g>
<!-- OrganizationService&#45;&gt;OrganizationModule -->
<g id="edge37" class="edge">
<title>OrganizationService&#45;&gt;OrganizationModule</title>
<path fill="none" stroke="black" d="M932.72,-372.06C932.72,-350.12 932.72,-310 932.72,-310 932.72,-310 1559.84,-310 1559.84,-310"/>
<polygon fill="black" stroke="black" points="1559.84,-313.5 1569.84,-310 1559.84,-306.5 1559.84,-313.5"/>
</g>
<!-- PrismaService -->
<g id="node30" class="node">
<title>PrismaService</title>
<ellipse fill="#fdb462" stroke="black" cx="91" cy="-310" rx="66.63" ry="18"/>
<text text-anchor="middle" x="91" y="-305.8" font-family="Times,serif" font-size="14.00">PrismaService</text>
</g>
<!-- PrismaService&#45;&gt;SharedModule -->
<g id="edge41" class="edge">
<title>PrismaService&#45;&gt;SharedModule</title>
<path fill="none" stroke="black" d="M91,-291.88C91,-277.22 91,-259 91,-259 91,-259 652.15,-259 652.15,-259 652.15,-259 652.15,-258.32 652.15,-258.32"/>
<polygon fill="black" stroke="black" points="655.65,-262.17 652.15,-252.17 648.65,-262.17 655.65,-262.17"/>
</g>
<!-- TagsService -->
<g id="node32" class="node">
<title>TagsService</title>
<ellipse fill="#fdb462" stroke="black" cx="1221" cy="-386" rx="58.53" ry="18"/>
<text text-anchor="middle" x="1221" y="-381.8" font-family="Times,serif" font-size="14.00">TagsService</text>
</g>
<!-- TagsService&#45;&gt;TagsModule -->
<g id="edge44" class="edge">
<title>TagsService&#45;&gt;TagsModule</title>
<path fill="none" stroke="black" d="M1272.49,-377.19C1272.49,-365.96 1272.49,-348 1272.49,-348 1272.49,-348 1742.31,-348 1742.31,-348 1742.31,-348 1742.31,-338.11 1742.31,-338.11"/>
<polygon fill="black" stroke="black" points="1745.81,-338.11 1742.31,-328.11 1738.81,-338.11 1745.81,-338.11"/>
</g>
<!-- UserAclService -->
<g id="node34" class="node">
<title>UserAclService</title>
<ellipse fill="#fdb462" stroke="black" cx="1355" cy="-234" rx="72.32" ry="18"/>
<text text-anchor="middle" x="1355" y="-229.8" font-family="Times,serif" font-size="14.00">UserAclService</text>
</g>
<!-- UserAclService&#45;&gt;UserModule -->
<g id="edge48" class="edge">
<title>UserAclService&#45;&gt;UserModule</title>
<path fill="none" stroke="black" d="M1409.75,-246.09C1409.75,-259.71 1409.75,-280 1409.75,-280 1409.75,-280 1996,-280 1996,-280 1996,-280 1996,-281.86 1996,-281.86"/>
<polygon fill="black" stroke="black" points="1992.5,-281.86 1996,-291.86 1999.5,-281.86 1992.5,-281.86"/>
</g>
<!-- UserService -->
<g id="node35" class="node">
<title>UserService</title>
<ellipse fill="#fdb462" stroke="black" cx="1207" cy="-234" rx="58.44" ry="18"/>
<text text-anchor="middle" x="1207" y="-229.8" font-family="Times,serif" font-size="14.00">UserService</text>
</g>
<!-- UserService&#45;&gt;UserModule -->
<g id="edge49" class="edge">
<title>UserService&#45;&gt;UserModule</title>
<path fill="none" stroke="black" d="M1213.73,-252.15C1213.73,-265.74 1213.73,-282 1213.73,-282 1213.73,-282 1981.67,-282 1981.67,-282 1981.67,-282 1981.67,-282.98 1981.67,-282.98"/>
<polygon fill="black" stroke="black" points="1978.17,-281.79 1981.67,-291.79 1985.17,-281.79 1978.17,-281.79"/>
</g>
</g>
</svg>
